<svg width="19" height="18" viewBox="0 0 19 18" fill="none" xmlns="http://www.w3.org/2000/svg">
<path d="M16.7801 14.9766C15.6684 13.0556 13.9233 11.7077 11.8955 11.1361C12.8813 10.6349 13.6697 9.81634 14.1334 8.81231C14.5972 7.80829 14.7092 6.67734 14.4516 5.60182C14.1939 4.52631 13.5815 3.56892 12.7132 2.88403C11.8448 2.19914 10.7711 1.82666 9.66514 1.82666C8.5592 1.82666 7.48548 2.19914 6.61712 2.88403C5.74877 3.56892 5.13638 4.52631 4.87872 5.60182C4.62105 6.67734 4.73312 7.80829 5.19685 8.81231C5.66058 9.81634 6.44895 10.6349 7.43483 11.1361C5.40702 11.707 3.66186 13.0549 2.55022 14.9766C2.5197 15.0246 2.4992 15.0783 2.48997 15.1344C2.48073 15.1906 2.48295 15.248 2.49649 15.3032C2.51003 15.3585 2.5346 15.4105 2.56874 15.456C2.60287 15.5015 2.64586 15.5396 2.69513 15.5681C2.74439 15.5966 2.7989 15.6148 2.85538 15.6217C2.91186 15.6285 2.96915 15.6239 3.02379 15.608C3.07844 15.5922 3.12931 15.5655 3.17335 15.5294C3.21739 15.4934 3.25369 15.4488 3.28007 15.3984C4.63077 13.0648 7.01718 11.6719 9.66514 11.6719C12.3131 11.6719 14.6995 13.0648 16.0502 15.3984C16.0766 15.4488 16.1129 15.4934 16.1569 15.5294C16.201 15.5655 16.2519 15.5922 16.3065 15.608C16.3611 15.6239 16.4184 15.6285 16.4749 15.6217C16.5314 15.6148 16.5859 15.5966 16.6352 15.5681C16.6844 15.5396 16.7274 15.5015 16.7616 15.456C16.7957 15.4105 16.8203 15.3585 16.8338 15.3032C16.8473 15.248 16.8496 15.1906 16.8403 15.1344C16.8311 15.0783 16.8106 15.0246 16.7801 14.9766ZM5.58702 6.74999C5.58702 5.94341 5.8262 5.15495 6.27431 4.4843C6.72242 3.81366 7.35933 3.29095 8.10451 2.98229C8.84969 2.67363 9.66967 2.59287 10.4607 2.75022C11.2518 2.90758 11.9785 3.29598 12.5488 3.86632C13.1192 4.43665 13.5076 5.16331 13.6649 5.95438C13.8223 6.74546 13.7415 7.56544 13.4328 8.31062C13.1242 9.0558 12.6015 9.69271 11.9308 10.1408C11.2602 10.5889 10.4717 10.8281 9.66514 10.8281C8.58396 10.8268 7.54743 10.3967 6.78291 9.63222C6.0184 8.8677 5.58832 7.83117 5.58702 6.74999Z" fill="#656565"/>
</svg>
