<svg width="18" height="18" viewBox="0 0 18 18" fill="none" xmlns="http://www.w3.org/2000/svg">
<path d="M7.91634 11.1396C8.69976 10.6955 9.31417 10.0047 9.66374 9.17479C10.0133 8.3449 10.0783 7.42264 9.84873 6.5519C9.61912 5.68115 9.10776 4.91089 8.39443 4.36128C7.6811 3.81167 6.80592 3.51361 5.90541 3.51361C5.0049 3.51361 4.12971 3.81167 3.41638 4.36128C2.70305 4.91089 2.19169 5.68115 1.96208 6.5519C1.73247 7.42264 1.79752 8.3449 2.14708 9.17479C2.49664 10.0047 3.11105 10.6955 3.89447 11.1396C2.4425 11.6025 1.19556 12.5538 0.365484 13.8319C0.304319 13.9256 0.282883 14.0397 0.305893 14.1492C0.328903 14.2587 0.394473 14.3546 0.48818 14.4158C0.581886 14.477 0.696052 14.4984 0.805563 14.4754C0.915074 14.4524 1.01096 14.3868 1.07212 14.2931C1.59568 13.4881 2.31199 12.8267 3.15604 12.3688C4.0001 11.9109 4.94515 11.671 5.90541 11.671C6.86566 11.671 7.81072 11.9109 8.65477 12.3688C9.49882 12.8267 10.2151 13.4881 10.7387 14.2931C10.8038 14.3766 10.898 14.4325 11.0025 14.4498C11.107 14.4671 11.2141 14.4444 11.3027 14.3863C11.3912 14.3282 11.4547 14.239 11.4805 14.1362C11.5063 14.0335 11.4925 13.9249 11.4418 13.8319C10.6126 12.5544 9.36702 11.6032 7.91634 11.1396ZM2.67103 7.59373C2.67103 6.95403 2.86072 6.32869 3.21612 5.7968C3.57152 5.26491 4.07666 4.85036 4.66766 4.60555C5.25867 4.36075 5.90899 4.2967 6.5364 4.4215C7.16381 4.5463 7.74012 4.85434 8.19245 5.30668C8.64479 5.75901 8.95283 6.33532 9.07763 6.96273C9.20243 7.59014 9.13838 8.24046 8.89358 8.83147C8.64878 9.42247 8.23422 9.92761 7.70233 10.283C7.17044 10.6384 6.5451 10.8281 5.90541 10.8281C5.04794 10.827 4.22591 10.4859 3.61959 9.87954C3.01327 9.27322 2.67215 8.45119 2.67103 7.59373ZM17.507 14.414C17.4133 14.4751 17.2993 14.4966 17.1899 14.4736C17.0804 14.4507 16.9846 14.3853 16.9234 14.2917C16.4008 13.4866 15.685 12.8252 14.8413 12.3676C13.9975 11.91 13.0527 11.6708 12.0929 11.6719C11.981 11.6719 11.8737 11.6274 11.7946 11.5483C11.7155 11.4692 11.671 11.3619 11.671 11.25C11.671 11.1381 11.7155 11.0308 11.7946 10.9517C11.8737 10.8725 11.981 10.8281 12.0929 10.8281C12.5692 10.8276 13.0395 10.722 13.4702 10.5187C13.9009 10.3154 14.2814 10.0194 14.5845 9.65205C14.8876 9.28466 15.1059 8.85486 15.2236 8.39336C15.3414 7.93186 15.3557 7.45005 15.2657 6.98235C15.1757 6.51465 14.9835 6.07261 14.7028 5.6878C14.4221 5.30299 14.06 4.98492 13.6421 4.7563C13.2243 4.52769 12.7611 4.39418 12.2857 4.3653C11.8103 4.33643 11.3344 4.41291 10.892 4.58927C10.8404 4.61037 10.7852 4.62106 10.7296 4.62073C10.6739 4.62039 10.6188 4.60904 10.5676 4.58732C10.5163 4.5656 10.4698 4.53395 10.4309 4.49419C10.3919 4.45443 10.3612 4.40735 10.3405 4.35566C10.3198 4.30397 10.3095 4.24869 10.3103 4.19302C10.311 4.13735 10.3228 4.08238 10.3449 4.03128C10.3671 3.98018 10.3991 3.93397 10.4391 3.8953C10.4792 3.85663 10.5265 3.82628 10.5784 3.80599C11.538 3.4234 12.6071 3.41928 13.5697 3.79446C14.5322 4.16964 15.3165 4.89616 15.7641 5.82725C16.2117 6.75834 16.2893 7.82461 15.9811 8.81067C15.6729 9.79673 15.002 10.6291 14.1038 11.1396C15.5558 11.6025 16.8028 12.5538 17.6328 13.8319C17.6932 13.9258 17.7138 14.0398 17.6902 14.149C17.6666 14.2581 17.6007 14.3534 17.507 14.414Z" fill="#656565"/>
</svg>
