<svg width="1026" height="600" viewBox="0 0 1026 600" fill="none" xmlns="http://www.w3.org/2000/svg">
<path opacity="0.1" d="M300 600C134.587 600 0 465.427 0 300C0 134.573 134.573 0 300 0C465.427 0 600 134.573 600 300C600 465.427 465.427 600 300 600ZM300 174.6C230.853 174.6 174.6 230.853 174.6 300C174.6 369.147 230.853 425.4 300 425.4C369.147 425.4 425.4 369.147 425.4 300C425.4 230.853 369.147 174.6 300 174.6Z" fill="#EF544F"/>
<path opacity="0.1" d="M725.4 600C559.987 600 425.4 465.427 425.4 300C425.4 134.573 559.973 0 725.4 0C890.827 0 1025.4 134.573 1025.4 300C1025.4 465.427 890.827 600 725.4 600ZM725.4 174.6C656.253 174.6 600 230.853 600 300C600 369.147 656.253 425.4 725.4 425.4C794.547 425.4 850.8 369.147 850.8 300C850.8 230.853 794.547 174.6 725.4 174.6Z" fill="#8F4FEF"/>
<path d="M1025.39 299.987C1025.39 465.4 890.813 600 725.4 600C559.987 600 425.413 465.413 425.413 299.987C425.413 230.84 369.16 174.6 300.027 174.6C230.893 174.6 174.613 230.853 174.613 299.987H0.0133667C0.0133667 134.573 134.6 0 300.027 0C465.453 0 600.013 134.573 600.013 299.987C600.013 369.147 656.267 425.4 725.4 425.4C794.533 425.4 850.787 369.147 850.787 299.987H1025.39Z" fill="white"/>
<path opacity="0.25" d="M1025.39 299.987C1025.39 465.4 890.813 600 725.4 600C559.987 600 425.413 465.413 425.413 299.987C425.413 230.84 369.16 174.6 300.027 174.6C230.893 174.6 174.613 230.853 174.613 299.987H0.0133667C0.0133667 134.573 134.6 0 300.027 0C465.453 0 600.013 134.573 600.013 299.987C600.013 369.147 656.267 425.4 725.4 425.4C794.533 425.4 850.787 369.147 850.787 299.987H1025.39Z" fill="url(#paint0_linear_1_69)"/>
<defs>
<linearGradient id="paint0_linear_1_69" x1="3.33648e-05" y1="300" x2="1025.39" y2="300" gradientUnits="userSpaceOnUse">
<stop stop-color="#EF544F"/>
<stop offset="1" stop-color="#8F4FEF"/>
</linearGradient>
</defs>
</svg>
