<svg width="240" height="50" viewBox="0 0 240 50" fill="none" xmlns="http://www.w3.org/2000/svg">
<rect x="0.5" y="0.5" width="239" height="49" rx="24.5" fill="#242424"/>
<rect x="0.5" y="0.5" width="239" height="49" rx="24.5" stroke="#242424"/>
<path d="M82.2045 25.7631C82.2166 24.8432 82.4669 23.9412 82.9321 23.1411C83.3972 22.341 84.0621 21.6688 84.8648 21.187C84.3548 20.4759 83.6821 19.8908 82.9 19.478C82.1178 19.0652 81.2479 18.8361 80.3592 18.809C78.4635 18.6147 76.6258 19.9164 75.6598 19.9164C74.6751 19.9164 73.1878 18.8282 71.5862 18.8604C70.5502 18.8931 69.5406 19.1872 68.6557 19.7141C67.7708 20.241 67.0407 20.9826 66.5367 21.8669C64.3535 25.5573 65.982 30.9809 68.0734 33.964C69.1197 35.4247 70.3426 37.0563 71.9428 36.9985C73.5086 36.9351 74.0934 36.0237 75.9835 36.0237C77.8561 36.0237 78.4048 36.9985 80.0374 36.9617C81.7176 36.9351 82.7762 35.4945 83.7859 34.0199C84.5377 32.9791 85.1162 31.8288 85.5 30.6116C84.5238 30.2085 83.6908 29.5338 83.1048 28.6716C82.5187 27.8094 82.2056 26.7979 82.2045 25.7631Z" fill="white"/>
<path d="M79.1201 16.8471C80.0362 15.7734 80.4875 14.3934 80.3782 13C78.9786 13.1435 77.6857 13.7966 76.7572 14.8291C76.3033 15.3335 75.9556 15.9203 75.734 16.556C75.5125 17.1917 75.4215 17.8638 75.4661 18.5338C76.1662 18.5408 76.8588 18.3927 77.4917 18.1005C78.1246 17.8084 78.6814 17.3798 79.1201 16.8471Z" fill="white"/>
<path d="M99.572 21.02C99.936 21.02 100.216 21.02 100.412 21.02C100.608 21.02 100.753 21.02 100.846 21.02C101.35 21.02 101.803 20.9827 102.204 20.908C102.605 20.824 102.951 20.6747 103.24 20.46C103.529 20.236 103.749 19.9327 103.898 19.55C104.057 19.158 104.136 18.654 104.136 18.038C104.136 17.3847 104.001 16.8433 103.73 16.414C103.459 15.9847 103.077 15.6627 102.582 15.448C102.097 15.2333 101.518 15.126 100.846 15.126H99.572V21.02ZM105.368 18.052C105.368 19.088 105.167 19.8953 104.766 20.474C104.374 21.0433 103.814 21.44 103.086 21.664C102.367 21.888 101.518 22 100.538 22C100.389 22 100.151 22 99.824 22C99.4973 22 99.026 22 98.41 22V14.118C99.0633 14.118 99.5487 14.118 99.866 14.118C100.183 14.118 100.407 14.118 100.538 14.118C101.518 14.118 102.367 14.2673 103.086 14.566C103.814 14.8553 104.374 15.2893 104.766 15.868C105.167 16.4467 105.368 17.1747 105.368 18.052ZM109.118 22.14C108.502 22.14 107.984 22.014 107.564 21.762C107.144 21.51 106.826 21.1647 106.612 20.726C106.406 20.278 106.304 19.774 106.304 19.214C106.304 18.6353 106.406 18.1267 106.612 17.688C106.826 17.24 107.144 16.89 107.564 16.638C107.984 16.386 108.506 16.26 109.132 16.26C110.046 16.26 110.742 16.5307 111.218 17.072C111.694 17.6133 111.932 18.3273 111.932 19.214C111.932 19.7647 111.829 20.264 111.624 20.712C111.428 21.1507 111.12 21.5007 110.7 21.762C110.289 22.014 109.762 22.14 109.118 22.14ZM109.118 21.146C109.575 21.146 109.925 21.048 110.168 20.852C110.41 20.656 110.574 20.4087 110.658 20.11C110.751 19.802 110.798 19.4893 110.798 19.172C110.798 18.8547 110.751 18.5467 110.658 18.248C110.574 17.94 110.41 17.688 110.168 17.492C109.925 17.2867 109.575 17.184 109.118 17.184C108.679 17.184 108.334 17.2867 108.082 17.492C107.839 17.688 107.671 17.94 107.578 18.248C107.484 18.5467 107.438 18.8547 107.438 19.172C107.438 19.4893 107.484 19.802 107.578 20.11C107.671 20.4087 107.839 20.656 108.082 20.852C108.334 21.048 108.679 21.146 109.118 21.146ZM114.059 22L112.631 16.484V16.26H113.765L114.885 21.02H114.913L116.257 16.26H117.279L118.665 21.02H118.693L119.799 16.26H120.933V16.484L119.491 22H117.853L116.789 18.276H116.761L115.711 22H114.059ZM121.875 22V16.274H122.869L123.065 17.604H123.093C123.102 17.5667 123.14 17.478 123.205 17.338C123.27 17.198 123.378 17.0487 123.527 16.89C123.676 16.722 123.877 16.5773 124.129 16.456C124.381 16.3347 124.698 16.274 125.081 16.274C125.482 16.274 125.809 16.3393 126.061 16.47C126.322 16.5913 126.528 16.7593 126.677 16.974C126.836 17.1793 126.948 17.4127 127.013 17.674C127.078 17.926 127.12 18.1873 127.139 18.458C127.158 18.7193 127.167 18.9667 127.167 19.2V22H126.033V19.186C126.033 18.8313 125.996 18.514 125.921 18.234C125.846 17.9447 125.711 17.7207 125.515 17.562C125.319 17.394 125.025 17.31 124.633 17.31C124.241 17.31 123.928 17.4033 123.695 17.59C123.471 17.7767 123.308 18.0193 123.205 18.318C123.112 18.6073 123.065 18.9247 123.065 19.27V22H121.875ZM128.528 22V14.118H129.676V22H128.528ZM133.635 22.14C133.019 22.14 132.501 22.014 132.081 21.762C131.661 21.51 131.343 21.1647 131.129 20.726C130.923 20.278 130.821 19.774 130.821 19.214C130.821 18.6353 130.923 18.1267 131.129 17.688C131.343 17.24 131.661 16.89 132.081 16.638C132.501 16.386 133.023 16.26 133.649 16.26C134.563 16.26 135.259 16.5307 135.735 17.072C136.211 17.6133 136.449 18.3273 136.449 19.214C136.449 19.7647 136.346 20.264 136.141 20.712C135.945 21.1507 135.637 21.5007 135.217 21.762C134.806 22.014 134.279 22.14 133.635 22.14ZM133.635 21.146C134.092 21.146 134.442 21.048 134.685 20.852C134.927 20.656 135.091 20.4087 135.175 20.11C135.268 19.802 135.315 19.4893 135.315 19.172C135.315 18.8547 135.268 18.5467 135.175 18.248C135.091 17.94 134.927 17.688 134.685 17.492C134.442 17.2867 134.092 17.184 133.635 17.184C133.196 17.184 132.851 17.2867 132.599 17.492C132.356 17.688 132.188 17.94 132.095 18.248C132.001 18.5467 131.955 18.8547 131.955 19.172C131.955 19.4893 132.001 19.802 132.095 20.11C132.188 20.4087 132.356 20.656 132.599 20.852C132.851 21.048 133.196 21.146 133.635 21.146ZM139.599 22.126C139.076 22.126 138.647 22 138.311 21.748C137.984 21.496 137.741 21.1507 137.583 20.712C137.433 20.2733 137.359 19.7693 137.359 19.2C137.359 18.612 137.438 18.0987 137.597 17.66C137.755 17.212 137.998 16.862 138.325 16.61C138.661 16.358 139.085 16.232 139.599 16.232C139.916 16.232 140.187 16.2787 140.411 16.372C140.635 16.456 140.821 16.5633 140.971 16.694C141.12 16.8247 141.241 16.96 141.335 17.1C141.428 17.2307 141.493 17.3473 141.531 17.45H141.559V16.274H142.749V22H141.755L141.559 20.978H141.531C141.493 21.0807 141.428 21.1973 141.335 21.328C141.241 21.4587 141.115 21.5847 140.957 21.706C140.807 21.8273 140.621 21.9253 140.397 22C140.173 22.084 139.907 22.126 139.599 22.126ZM140.061 21.132C140.434 21.132 140.728 21.0527 140.943 20.894C141.157 20.726 141.311 20.4973 141.405 20.208C141.498 19.9187 141.545 19.5873 141.545 19.214C141.545 18.8127 141.493 18.4673 141.391 18.178C141.297 17.8887 141.143 17.6693 140.929 17.52C140.714 17.3613 140.425 17.282 140.061 17.282C139.678 17.282 139.37 17.3707 139.137 17.548C138.913 17.716 138.749 17.9447 138.647 18.234C138.553 18.5233 138.507 18.8453 138.507 19.2C138.507 19.564 138.553 19.8953 138.647 20.194C138.749 20.4833 138.913 20.712 139.137 20.88C139.37 21.048 139.678 21.132 140.061 21.132ZM146.397 22.14C145.837 22.14 145.375 22.014 145.011 21.762C144.656 21.51 144.39 21.1647 144.213 20.726C144.045 20.2873 143.961 19.788 143.961 19.228C143.961 18.64 144.049 18.1267 144.227 17.688C144.404 17.24 144.67 16.8947 145.025 16.652C145.389 16.4 145.846 16.274 146.397 16.274C146.77 16.274 147.083 16.3347 147.335 16.456C147.596 16.5773 147.801 16.722 147.951 16.89C148.1 17.058 148.207 17.212 148.273 17.352C148.347 17.492 148.389 17.5807 148.399 17.618H148.427V14.118H149.631V22H148.623L148.441 20.852H148.413C148.394 20.8893 148.347 20.978 148.273 21.118C148.198 21.2487 148.081 21.3933 147.923 21.552C147.764 21.7107 147.559 21.8507 147.307 21.972C147.055 22.084 146.751 22.14 146.397 22.14ZM146.733 21.132C147.097 21.132 147.405 21.0527 147.657 20.894C147.909 20.7353 148.095 20.5113 148.217 20.222C148.347 19.9327 148.413 19.5967 148.413 19.214C148.413 18.8407 148.352 18.5093 148.231 18.22C148.109 17.9307 147.927 17.7113 147.685 17.562C147.451 17.4033 147.153 17.324 146.789 17.324C146.378 17.324 146.047 17.4127 145.795 17.59C145.552 17.7673 145.375 18.0007 145.263 18.29C145.16 18.5793 145.109 18.8873 145.109 19.214C145.109 19.5407 145.155 19.8533 145.249 20.152C145.351 20.4413 145.519 20.6793 145.753 20.866C145.995 21.0433 146.322 21.132 146.733 21.132ZM156.839 22.14C156.223 22.14 155.705 22.014 155.285 21.762C154.865 21.51 154.548 21.1647 154.333 20.726C154.128 20.278 154.025 19.774 154.025 19.214C154.025 18.6353 154.128 18.1267 154.333 17.688C154.548 17.24 154.865 16.89 155.285 16.638C155.705 16.386 156.228 16.26 156.853 16.26C157.768 16.26 158.463 16.5307 158.939 17.072C159.415 17.6133 159.653 18.3273 159.653 19.214C159.653 19.7647 159.551 20.264 159.345 20.712C159.149 21.1507 158.841 21.5007 158.421 21.762C158.011 22.014 157.483 22.14 156.839 22.14ZM156.839 21.146C157.297 21.146 157.647 21.048 157.889 20.852C158.132 20.656 158.295 20.4087 158.379 20.11C158.473 19.802 158.519 19.4893 158.519 19.172C158.519 18.8547 158.473 18.5467 158.379 18.248C158.295 17.94 158.132 17.688 157.889 17.492C157.647 17.2867 157.297 17.184 156.839 17.184C156.401 17.184 156.055 17.2867 155.803 17.492C155.561 17.688 155.393 17.94 155.299 18.248C155.206 18.5467 155.159 18.8547 155.159 19.172C155.159 19.4893 155.206 19.802 155.299 20.11C155.393 20.4087 155.561 20.656 155.803 20.852C156.055 21.048 156.401 21.146 156.839 21.146ZM160.815 22V16.274H161.809L162.005 17.604H162.033C162.043 17.5667 162.08 17.478 162.145 17.338C162.211 17.198 162.318 17.0487 162.467 16.89C162.617 16.722 162.817 16.5773 163.069 16.456C163.321 16.3347 163.639 16.274 164.021 16.274C164.423 16.274 164.749 16.3393 165.001 16.47C165.263 16.5913 165.468 16.7593 165.617 16.974C165.776 17.1793 165.888 17.4127 165.953 17.674C166.019 17.926 166.061 18.1873 166.079 18.458C166.098 18.7193 166.107 18.9667 166.107 19.2V22H164.973V19.186C164.973 18.8313 164.936 18.514 164.861 18.234C164.787 17.9447 164.651 17.7207 164.455 17.562C164.259 17.394 163.965 17.31 163.573 17.31C163.181 17.31 162.869 17.4033 162.635 17.59C162.411 17.7767 162.248 18.0193 162.145 18.318C162.052 18.6073 162.005 18.9247 162.005 19.27V22H160.815ZM99.684 36C99.292 36 99.0027 35.8973 98.816 35.692C98.6293 35.4867 98.536 35.174 98.536 34.754V30.974H99.642V35.076H100.972V36H99.684ZM97.654 31.114V30.274C97.8687 30.274 98.0413 30.26 98.172 30.232C98.312 30.204 98.4147 30.148 98.48 30.064C98.5547 29.9707 98.606 29.826 98.634 29.63C98.662 29.4247 98.676 29.1493 98.676 28.804H99.642V30.274H100.958V31.114H97.654ZM102.276 36V28.118H103.466V31.604H103.494C103.504 31.5667 103.541 31.478 103.606 31.338C103.672 31.198 103.774 31.0487 103.914 30.89C104.064 30.722 104.26 30.5773 104.502 30.456C104.745 30.3347 105.053 30.274 105.426 30.274C105.828 30.274 106.159 30.3393 106.42 30.47C106.682 30.5913 106.887 30.7593 107.036 30.974C107.195 31.1887 107.312 31.4267 107.386 31.688C107.461 31.9493 107.508 32.2107 107.526 32.472C107.554 32.7333 107.568 32.976 107.568 33.2V36H106.434V33.186C106.434 32.8313 106.397 32.514 106.322 32.234C106.248 31.9447 106.112 31.7207 105.916 31.562C105.72 31.394 105.426 31.31 105.034 31.31C104.642 31.31 104.33 31.4033 104.096 31.59C103.872 31.7767 103.709 32.0193 103.606 32.318C103.513 32.6073 103.466 32.9247 103.466 33.27V36H102.276ZM111.46 36.14C110.816 36.14 110.288 36 109.878 35.72C109.467 35.4307 109.164 35.062 108.968 34.614C108.772 34.1567 108.674 33.6853 108.674 33.2C108.664 32.6493 108.767 32.15 108.982 31.702C109.206 31.254 109.523 30.8993 109.934 30.638C110.354 30.3767 110.853 30.246 111.432 30.246C111.936 30.246 112.384 30.358 112.776 30.582C113.168 30.7967 113.48 31.1047 113.714 31.506C113.947 31.898 114.073 32.3647 114.092 32.906C114.101 32.934 114.106 32.99 114.106 33.074C114.106 33.1487 114.106 33.214 114.106 33.27H109.78C109.78 33.8673 109.924 34.334 110.214 34.67C110.512 34.9967 110.923 35.16 111.446 35.16C111.838 35.16 112.169 35.062 112.44 34.866C112.72 34.6607 112.892 34.39 112.958 34.054H114.092C114.036 34.446 113.896 34.8007 113.672 35.118C113.448 35.4353 113.149 35.6873 112.776 35.874C112.402 36.0513 111.964 36.14 111.46 36.14ZM109.822 32.696H112.93C112.92 32.5933 112.892 32.458 112.846 32.29C112.808 32.122 112.734 31.9587 112.622 31.8C112.51 31.632 112.356 31.492 112.16 31.38C111.964 31.268 111.712 31.212 111.404 31.212C111.124 31.212 110.886 31.2587 110.69 31.352C110.494 31.4453 110.335 31.5713 110.214 31.73C110.092 31.8793 109.999 32.0427 109.934 32.22C109.878 32.388 109.84 32.5467 109.822 32.696ZM118.346 36L120.992 28.118H122.91L125.612 36H124.366L121.972 28.608L119.578 36H118.346ZM119.956 33.648L119.998 32.724H123.918L123.974 33.648H119.956ZM129.838 36.14C129.474 36.14 129.17 36.084 128.928 35.972C128.685 35.8507 128.484 35.7107 128.326 35.552C128.176 35.3933 128.064 35.2487 127.99 35.118C127.915 34.978 127.868 34.8893 127.85 34.852H127.822V38.45H126.632V30.274H127.64L127.836 31.618H127.864C127.873 31.5807 127.91 31.492 127.976 31.352C128.041 31.212 128.148 31.058 128.298 30.89C128.447 30.722 128.643 30.5773 128.886 30.456C129.138 30.3347 129.45 30.274 129.824 30.274C130.393 30.274 130.855 30.4 131.21 30.652C131.574 30.904 131.844 31.254 132.022 31.702C132.199 32.1407 132.288 32.6493 132.288 33.228C132.288 33.8067 132.194 34.3153 132.008 34.754C131.83 35.1927 131.56 35.5333 131.196 35.776C130.841 36.0187 130.388 36.14 129.838 36.14ZM129.53 35.132C129.94 35.132 130.262 35.0433 130.496 34.866C130.738 34.6793 130.906 34.4413 131 34.152C131.102 33.8533 131.154 33.5407 131.154 33.214C131.154 32.8873 131.098 32.5793 130.986 32.29C130.883 32.0007 130.706 31.7673 130.454 31.59C130.211 31.4127 129.884 31.324 129.474 31.324C129.119 31.324 128.82 31.4033 128.578 31.562C128.335 31.7113 128.153 31.9307 128.032 32.22C127.91 32.5093 127.85 32.8407 127.85 33.214C127.85 33.5967 127.91 33.9327 128.032 34.222C128.162 34.5113 128.354 34.7353 128.606 34.894C128.858 35.0527 129.166 35.132 129.53 35.132ZM136.719 36.14C136.355 36.14 136.052 36.084 135.809 35.972C135.566 35.8507 135.366 35.7107 135.207 35.552C135.058 35.3933 134.946 35.2487 134.871 35.118C134.796 34.978 134.75 34.8893 134.731 34.852H134.703V38.45H133.513V30.274H134.521L134.717 31.618H134.745C134.754 31.5807 134.792 31.492 134.857 31.352C134.922 31.212 135.03 31.058 135.179 30.89C135.328 30.722 135.524 30.5773 135.767 30.456C136.019 30.3347 136.332 30.274 136.705 30.274C137.274 30.274 137.736 30.4 138.091 30.652C138.455 30.904 138.726 31.254 138.903 31.702C139.08 32.1407 139.169 32.6493 139.169 33.228C139.169 33.8067 139.076 34.3153 138.889 34.754C138.712 35.1927 138.441 35.5333 138.077 35.776C137.722 36.0187 137.27 36.14 136.719 36.14ZM136.411 35.132C136.822 35.132 137.144 35.0433 137.377 34.866C137.62 34.6793 137.788 34.4413 137.881 34.152C137.984 33.8533 138.035 33.5407 138.035 33.214C138.035 32.8873 137.979 32.5793 137.867 32.29C137.764 32.0007 137.587 31.7673 137.335 31.59C137.092 31.4127 136.766 31.324 136.355 31.324C136 31.324 135.702 31.4033 135.459 31.562C135.216 31.7113 135.034 31.9307 134.913 32.22C134.792 32.5093 134.731 32.8407 134.731 33.214C134.731 33.5967 134.792 33.9327 134.913 34.222C135.044 34.5113 135.235 34.7353 135.487 34.894C135.739 35.0527 136.047 35.132 136.411 35.132ZM146.802 36.168C146.372 36.168 145.957 36.1167 145.556 36.014C145.154 35.9113 144.79 35.7527 144.464 35.538C144.137 35.3233 143.876 35.048 143.68 34.712C143.484 34.3667 143.381 33.956 143.372 33.48H144.548C144.548 33.508 144.557 33.5827 144.576 33.704C144.594 33.8253 144.641 33.9653 144.716 34.124C144.8 34.2827 144.921 34.4367 145.08 34.586C145.248 34.7353 145.476 34.8613 145.766 34.964C146.064 35.0573 146.438 35.104 146.886 35.104C147.231 35.104 147.52 35.0667 147.754 34.992C147.987 34.9173 148.174 34.8193 148.314 34.698C148.454 34.5767 148.552 34.4507 148.608 34.32C148.673 34.1893 148.706 34.0727 148.706 33.97C148.706 33.6807 148.612 33.4473 148.426 33.27C148.248 33.0927 148.006 32.9527 147.698 32.85C147.39 32.738 147.049 32.64 146.676 32.556C146.312 32.4627 145.948 32.3647 145.584 32.262C145.22 32.15 144.884 32.0053 144.576 31.828C144.277 31.6507 144.044 31.422 143.876 31.142C143.708 30.8527 143.633 30.484 143.652 30.036C143.68 29.6067 143.829 29.238 144.1 28.93C144.37 28.622 144.739 28.3887 145.206 28.23C145.682 28.062 146.223 27.978 146.83 27.978C147.38 27.978 147.884 28.076 148.342 28.272C148.808 28.468 149.182 28.762 149.462 29.154C149.751 29.5367 149.891 30.0267 149.882 30.624H148.748C148.757 30.2973 148.692 30.036 148.552 29.84C148.412 29.6347 148.23 29.476 148.006 29.364C147.791 29.252 147.567 29.1773 147.334 29.14C147.1 29.0933 146.89 29.07 146.704 29.07C146.181 29.07 145.747 29.168 145.402 29.364C145.066 29.5507 144.893 29.8167 144.884 30.162C144.874 30.4607 144.963 30.6987 145.15 30.876C145.336 31.0533 145.584 31.1933 145.892 31.296C146.2 31.3987 146.54 31.492 146.914 31.576C147.287 31.66 147.656 31.7533 148.02 31.856C148.384 31.9587 148.715 32.0987 149.014 32.276C149.322 32.444 149.56 32.6727 149.728 32.962C149.905 33.2513 149.984 33.6247 149.966 34.082C149.947 34.5207 149.798 34.894 149.518 35.202C149.238 35.51 148.864 35.748 148.398 35.916C147.931 36.084 147.399 36.168 146.802 36.168ZM152.824 36C152.432 36 152.143 35.8973 151.956 35.692C151.77 35.4867 151.676 35.174 151.676 34.754V30.974H152.782V35.076H154.112V36H152.824ZM150.794 31.114V30.274C151.009 30.274 151.182 30.26 151.312 30.232C151.452 30.204 151.555 30.148 151.62 30.064C151.695 29.9707 151.746 29.826 151.774 29.63C151.802 29.4247 151.816 29.1493 151.816 28.804H152.782V30.274H154.098V31.114H150.794ZM157.842 36.14C157.226 36.14 156.708 36.014 156.288 35.762C155.868 35.51 155.55 35.1647 155.336 34.726C155.13 34.278 155.028 33.774 155.028 33.214C155.028 32.6353 155.13 32.1267 155.336 31.688C155.55 31.24 155.868 30.89 156.288 30.638C156.708 30.386 157.23 30.26 157.856 30.26C158.77 30.26 159.466 30.5307 159.942 31.072C160.418 31.6133 160.656 32.3273 160.656 33.214C160.656 33.7647 160.553 34.264 160.348 34.712C160.152 35.1507 159.844 35.5007 159.424 35.762C159.013 36.014 158.486 36.14 157.842 36.14ZM157.842 35.146C158.299 35.146 158.649 35.048 158.892 34.852C159.134 34.656 159.298 34.4087 159.382 34.11C159.475 33.802 159.522 33.4893 159.522 33.172C159.522 32.8547 159.475 32.5467 159.382 32.248C159.298 31.94 159.134 31.688 158.892 31.492C158.649 31.2867 158.299 31.184 157.842 31.184C157.403 31.184 157.058 31.2867 156.806 31.492C156.563 31.688 156.395 31.94 156.302 32.248C156.208 32.5467 156.162 32.8547 156.162 33.172C156.162 33.4893 156.208 33.802 156.302 34.11C156.395 34.4087 156.563 34.656 156.806 34.852C157.058 35.048 157.403 35.146 157.842 35.146ZM161.916 36V30.274H162.994L163.092 31.926L163.078 33.158V36H161.916ZM163.078 33.424L163.036 32.164C163.045 31.9587 163.092 31.7487 163.176 31.534C163.26 31.31 163.386 31.1047 163.554 30.918C163.731 30.722 163.955 30.568 164.226 30.456C164.506 30.3347 164.842 30.274 165.234 30.274H165.472V31.562H165.22C164.8 31.562 164.45 31.604 164.17 31.688C163.89 31.7627 163.67 31.8793 163.512 32.038C163.353 32.1967 163.241 32.3927 163.176 32.626C163.11 32.8593 163.078 33.1253 163.078 33.424ZM168.966 36.14C168.322 36.14 167.794 36 167.384 35.72C166.973 35.4307 166.67 35.062 166.474 34.614C166.278 34.1567 166.18 33.6853 166.18 33.2C166.17 32.6493 166.273 32.15 166.488 31.702C166.712 31.254 167.029 30.8993 167.44 30.638C167.86 30.3767 168.359 30.246 168.938 30.246C169.442 30.246 169.89 30.358 170.282 30.582C170.674 30.7967 170.986 31.1047 171.22 31.506C171.453 31.898 171.579 32.3647 171.598 32.906C171.607 32.934 171.612 32.99 171.612 33.074C171.612 33.1487 171.612 33.214 171.612 33.27H167.286C167.286 33.8673 167.43 34.334 167.72 34.67C168.018 34.9967 168.429 35.16 168.952 35.16C169.344 35.16 169.675 35.062 169.946 34.866C170.226 34.6607 170.398 34.39 170.464 34.054H171.598C171.542 34.446 171.402 34.8007 171.178 35.118C170.954 35.4353 170.655 35.6873 170.282 35.874C169.908 36.0513 169.47 36.14 168.966 36.14ZM167.328 32.696H170.436C170.426 32.5933 170.398 32.458 170.352 32.29C170.314 32.122 170.24 31.9587 170.128 31.8C170.016 31.632 169.862 31.492 169.666 31.38C169.47 31.268 169.218 31.212 168.91 31.212C168.63 31.212 168.392 31.2587 168.196 31.352C168 31.4453 167.841 31.5713 167.72 31.73C167.598 31.8793 167.505 32.0427 167.44 32.22C167.384 32.388 167.346 32.5467 167.328 32.696Z" fill="white"/>
</svg>
