<svg width="40" height="40" viewBox="0 0 40 40" fill="none" xmlns="http://www.w3.org/2000/svg">
<path d="M0 20C0 8.95431 8.95431 0 20 0C31.0457 0 40 8.95431 40 20C40 31.0457 31.0457 40 20 40C8.95431 40 0 31.0457 0 20Z" fill="white" fill-opacity="0.2"/>
<path d="M27.3433 20C27.3433 20.1243 27.294 20.2436 27.206 20.3315C27.1181 20.4194 26.9989 20.4688 26.8746 20.4688H14.2566L19.0808 25.2938C19.1269 25.3367 19.1638 25.3884 19.1895 25.4459C19.2151 25.5034 19.2288 25.5655 19.23 25.6285C19.2311 25.6914 19.2195 25.7539 19.1959 25.8123C19.1723 25.8706 19.1372 25.9237 19.0927 25.9682C19.0482 26.0127 18.9952 26.0478 18.9368 26.0714C18.8785 26.0949 18.816 26.1065 18.753 26.1054C18.6901 26.1043 18.628 26.0905 18.5705 26.0649C18.513 26.0393 18.4613 26.0023 18.4183 25.9563L12.7933 20.3313C12.7056 20.2434 12.6562 20.1242 12.6562 20C12.6562 19.8758 12.7056 19.7567 12.7933 19.6688L18.4183 14.0438C18.5072 13.961 18.6247 13.9159 18.7462 13.918C18.8676 13.9202 18.9835 13.9694 19.0694 14.0553C19.1552 14.1411 19.2044 14.257 19.2066 14.3784C19.2087 14.4999 19.1636 14.6174 19.0808 14.7063L14.2566 19.5313H26.8746C26.9989 19.5313 27.1181 19.5807 27.206 19.6686C27.294 19.7565 27.3433 19.8757 27.3433 20Z" fill="white"/>
</svg>
