<svg width="390" height="562" viewBox="0 0 390 562" fill="none" xmlns="http://www.w3.org/2000/svg">
<rect width="390" height="439" fill="#272938"/>
<path d="M34.9886 18.2045C35.5076 18.2083 36.0189 18.303 36.5227 18.4886C37.0265 18.6742 37.4811 18.9773 37.8864 19.3977C38.2955 19.8182 38.6212 20.3864 38.8636 21.1023C39.1098 21.8144 39.2348 22.7008 39.2386 23.7614C39.2386 24.7803 39.1364 25.6875 38.9318 26.483C38.7273 27.2746 38.4337 27.9432 38.0511 28.4886C37.6723 29.0341 37.2121 29.4489 36.6705 29.733C36.1288 30.017 35.5189 30.1591 34.8409 30.1591C34.1477 30.1591 33.5322 30.0227 32.9943 29.75C32.4564 29.4773 32.0189 29.1004 31.6818 28.6193C31.3447 28.1345 31.1345 27.5777 31.0511 26.9489H32.7841C32.8977 27.4489 33.1288 27.8542 33.4773 28.1648C33.8295 28.4716 34.2841 28.625 34.8409 28.625C35.6932 28.625 36.358 28.2538 36.8352 27.5114C37.3125 26.7652 37.553 25.7235 37.5568 24.3864H37.4659C37.2689 24.7121 37.0227 24.9924 36.7273 25.2273C36.4356 25.4621 36.108 25.6439 35.7443 25.7727C35.3807 25.9015 34.9924 25.9659 34.5795 25.9659C33.9091 25.9659 33.2992 25.8011 32.75 25.4716C32.2008 25.142 31.7633 24.6894 31.4375 24.1136C31.1117 23.5379 30.9489 22.8807 30.9489 22.142C30.9489 21.4072 31.1155 20.7405 31.4489 20.142C31.786 19.5436 32.2557 19.0701 32.858 18.7216C33.464 18.3693 34.1742 18.197 34.9886 18.2045ZM34.9943 19.6818C34.5511 19.6818 34.1515 19.7917 33.7955 20.0114C33.4432 20.2273 33.1648 20.5208 32.9602 20.892C32.7557 21.2595 32.6534 21.6686 32.6534 22.1193C32.6534 22.5701 32.7519 22.9792 32.9489 23.3466C33.1496 23.7102 33.4223 24 33.767 24.2159C34.1155 24.428 34.5133 24.5341 34.9602 24.5341C35.2936 24.5341 35.6042 24.4697 35.892 24.3409C36.1799 24.2121 36.4318 24.0341 36.6477 23.8068C36.8636 23.5758 37.0322 23.3144 37.1534 23.0227C37.2746 22.7311 37.3352 22.4242 37.3352 22.1023C37.3352 21.6742 37.233 21.2765 37.0284 20.9091C36.8277 20.5417 36.5511 20.2462 36.1989 20.0227C35.8466 19.7955 35.4451 19.6818 34.9943 19.6818ZM42.4332 28.5568C42.1226 28.5568 41.8556 28.447 41.6321 28.2273C41.4086 28.0038 41.2969 27.7348 41.2969 27.4205C41.2969 27.1098 41.4086 26.8447 41.6321 26.625C41.8556 26.4015 42.1226 26.2898 42.4332 26.2898C42.7438 26.2898 43.0109 26.4015 43.2344 26.625C43.4579 26.8447 43.5696 27.1098 43.5696 27.4205C43.5696 27.6288 43.5166 27.8201 43.4105 27.9943C43.3082 28.1648 43.1719 28.3011 43.0014 28.4034C42.831 28.5057 42.6416 28.5568 42.4332 28.5568ZM42.4332 22.7273C42.1226 22.7273 41.8556 22.6174 41.6321 22.3977C41.4086 22.1742 41.2969 21.9053 41.2969 21.5909C41.2969 21.2803 41.4086 21.0152 41.6321 20.7955C41.8556 20.572 42.1226 20.4602 42.4332 20.4602C42.7438 20.4602 43.0109 20.572 43.2344 20.7955C43.4579 21.0152 43.5696 21.2803 43.5696 21.5909C43.5696 21.7992 43.5166 21.9905 43.4105 22.1648C43.3082 22.3352 43.1719 22.4716 43.0014 22.5739C42.831 22.6761 42.6416 22.7273 42.4332 22.7273ZM45.5781 27.7273V26.3068L50.6065 18.3636H51.7259V20.4545H51.0156L47.419 26.1477V26.2386H54.3111V27.7273H45.5781ZM51.0952 30V27.2955L51.1065 26.6477V18.3636H52.7713V30H51.0952ZM60.5497 18.3636V30H58.7884V20.125H58.7202L55.9361 21.9432V20.2614L58.8395 18.3636H60.5497Z" fill="white"/>
<path d="M305 26.5C305.552 26.5 306 26.9477 306 27.5V29.5C306 30.0523 305.552 30.5 305 30.5H304C303.448 30.5 303 30.0523 303 29.5V27.5C303 26.9477 303.448 26.5 304 26.5H305ZM310 24.5C310.552 24.5 311 24.9477 311 25.5V29.5C311 30.0523 310.552 30.5 310 30.5H309C308.448 30.5 308 30.0523 308 29.5V25.5C308 24.9477 308.448 24.5 309 24.5H310ZM315 22.5C315.552 22.5 316 22.9298 316 23.46V29.54C316 30.0702 315.552 30.5 315 30.5H314C313.448 30.4999 313 30.0702 313 29.54V23.46C313 22.9298 313.448 22.5001 314 22.5H315ZM320 20.5C320.552 20.5 321 20.9197 321 21.4375V29.5625C321 30.0803 320.552 30.5 320 30.5H319C318.448 30.5 318 30.0803 318 29.5625V21.4375C318 20.9197 318.448 20.5 319 20.5H320Z" fill="white"/>
<path d="M331.427 27.4006C332.702 26.3217 334.571 26.3217 335.847 27.4006C335.911 27.4586 335.947 27.5408 335.949 27.6271C335.951 27.7136 335.917 27.797 335.855 27.8576L333.858 29.8732C333.8 29.9324 333.72 29.966 333.637 29.966C333.553 29.966 333.474 29.9324 333.415 29.8732L331.417 27.8576C331.355 27.797 331.322 27.7135 331.323 27.6271C331.325 27.5407 331.363 27.4585 331.427 27.4006ZM328.762 24.7111C331.51 22.155 335.766 22.155 338.514 24.7111C338.576 24.771 338.611 24.8535 338.612 24.9396C338.613 25.0258 338.579 25.1089 338.519 25.1701L337.364 26.3371C337.245 26.4562 337.053 26.4588 336.931 26.3429C336.028 25.5258 334.854 25.0734 333.637 25.0734C332.42 25.0739 331.247 25.5263 330.345 26.3429C330.223 26.4588 330.03 26.4562 329.911 26.3371L328.757 25.1701C328.696 25.109 328.662 25.0258 328.663 24.9396C328.664 24.8535 328.7 24.771 328.762 24.7111ZM326.097 22.0295C330.312 17.9903 336.962 17.9901 341.177 22.0295C341.238 22.0894 341.272 22.1716 341.272 22.257C341.273 22.3426 341.239 22.4248 341.179 22.4855L340.022 23.6525C339.903 23.772 339.711 23.7732 339.59 23.6554C337.984 22.1287 335.853 21.2776 333.637 21.2775C331.421 21.2775 329.289 22.1286 327.683 23.6554C327.562 23.7734 327.369 23.7722 327.25 23.6525L326.094 22.4855C326.033 22.4248 325.999 22.3426 326 22.257C326.001 22.1715 326.036 22.0894 326.097 22.0295Z" fill="white"/>
<path opacity="0.35" d="M349.667 18.5H369.333C370.53 18.5 371.5 19.4704 371.5 20.667V28.333C371.5 29.5296 370.53 30.5 369.333 30.5H349.667C348.47 30.5 347.5 29.5296 347.5 28.333V20.667L347.511 20.4453C347.622 19.3527 348.545 18.5 349.667 18.5Z" fill="white" stroke="#242424"/>
<path opacity="0.4" d="M372.65 23V27C373.455 26.6612 373.978 25.8731 373.978 25C373.978 24.1269 373.455 23.3388 372.65 23Z" fill="white"/>
<path d="M349.301 21.6666C349.301 20.9302 349.898 20.3333 350.634 20.3333H368.167C368.904 20.3333 369.501 20.9302 369.501 21.6666V27.3299C369.501 28.0663 368.904 28.6633 368.167 28.6633H350.634C349.898 28.6633 349.301 28.0663 349.301 27.3299V21.6666Z" fill="white"/>
<g filter="url(#filter0_f_3220_80615)">
<circle cx="188.5" cy="226.5" r="124.5" fill="#EF544F"/>
</g>
<g filter="url(#filter1_f_3220_80615)">
<circle cx="13" cy="332" r="66" fill="#8F4FEF"/>
</g>
<g filter="url(#filter2_f_3220_80615)">
<circle cx="326" cy="161" r="66" fill="#8F4FEF"/>
</g>
<defs>
<filter id="filter0_f_3220_80615" x="-100" y="-62" width="577" height="577" filterUnits="userSpaceOnUse" color-interpolation-filters="sRGB">
<feFlood flood-opacity="0" result="BackgroundImageFix"/>
<feBlend mode="normal" in="SourceGraphic" in2="BackgroundImageFix" result="shape"/>
<feGaussianBlur stdDeviation="82" result="effect1_foregroundBlur_3220_80615"/>
</filter>
<filter id="filter1_f_3220_80615" x="-217" y="102" width="460" height="460" filterUnits="userSpaceOnUse" color-interpolation-filters="sRGB">
<feFlood flood-opacity="0" result="BackgroundImageFix"/>
<feBlend mode="normal" in="SourceGraphic" in2="BackgroundImageFix" result="shape"/>
<feGaussianBlur stdDeviation="82" result="effect1_foregroundBlur_3220_80615"/>
</filter>
<filter id="filter2_f_3220_80615" x="96" y="-69" width="460" height="460" filterUnits="userSpaceOnUse" color-interpolation-filters="sRGB">
<feFlood flood-opacity="0" result="BackgroundImageFix"/>
<feBlend mode="normal" in="SourceGraphic" in2="BackgroundImageFix" result="shape"/>
<feGaussianBlur stdDeviation="82" result="effect1_foregroundBlur_3220_80615"/>
</filter>
</defs>
</svg>
