<svg width="19" height="18" viewBox="0 0 19 18" fill="none" xmlns="http://www.w3.org/2000/svg">
<path d="M15.9375 6.1875H14.8125V5.0625C14.8125 4.31658 14.5162 3.60121 13.9887 3.07376C13.4613 2.54632 12.7459 2.25 12 2.25H11.2139C10.3765 1.53281 9.24516 1.125 8.0625 1.125C5.58117 1.125 3.5625 2.89125 3.5625 5.0625V14.625C3.5625 14.9234 3.68103 15.2095 3.892 15.4205C4.10298 15.6315 4.38913 15.75 4.6875 15.75H13.6875C13.9859 15.75 14.272 15.6315 14.483 15.4205C14.694 15.2095 14.8125 14.9234 14.8125 14.625V14.0625H15.9375C16.3851 14.0625 16.8143 13.8847 17.1307 13.5682C17.4472 13.2518 17.625 12.8226 17.625 12.375V7.875C17.625 7.42745 17.4472 6.99822 17.1307 6.68176C16.8143 6.36529 16.3851 6.1875 15.9375 6.1875ZM8.0625 12.9375C8.0625 13.0867 8.00324 13.2298 7.89775 13.3352C7.79226 13.4407 7.64918 13.5 7.5 13.5C7.35082 13.5 7.20774 13.4407 7.10225 13.3352C6.99676 13.2298 6.9375 13.0867 6.9375 12.9375V7.3125C6.9375 7.16332 6.99676 7.02024 7.10225 6.91475C7.20774 6.80926 7.35082 6.75 7.5 6.75C7.64918 6.75 7.79226 6.80926 7.89775 6.91475C8.00324 7.02024 8.0625 7.16332 8.0625 7.3125V12.9375ZM11.4375 12.9375C11.4375 13.0867 11.3782 13.2298 11.2727 13.3352C11.1673 13.4407 11.0242 13.5 10.875 13.5C10.7258 13.5 10.5827 13.4407 10.4773 13.3352C10.3718 13.2298 10.3125 13.0867 10.3125 12.9375V7.3125C10.3125 7.16332 10.3718 7.02024 10.4773 6.91475C10.5827 6.80926 10.7258 6.75 10.875 6.75C11.0242 6.75 11.1673 6.80926 11.2727 6.91475C11.3782 7.02024 11.4375 7.16332 11.4375 7.3125V12.9375ZM4.75781 4.5C5.07141 3.2175 6.43477 2.25 8.0625 2.25C9.03773 2.25 9.96516 2.60156 10.6085 3.21891C10.7132 3.31907 10.8525 3.37498 10.9973 3.375H12C12.3489 3.37511 12.6891 3.48334 12.974 3.68481C13.2588 3.88628 13.4742 4.17108 13.5905 4.5H4.75781ZM16.5 12.375C16.5 12.5242 16.4407 12.6673 16.3352 12.7727C16.2298 12.8782 16.0867 12.9375 15.9375 12.9375H14.8125V7.3125H15.9375C16.0867 7.3125 16.2298 7.37176 16.3352 7.47725C16.4407 7.58274 16.5 7.72582 16.5 7.875V12.375Z" fill="#FF752C"/>
</svg>
