<svg width="64" height="64" viewBox="0 0 64 64" fill="none" xmlns="http://www.w3.org/2000/svg">
<g clip-path="url(#clip0_3220_80697)">
<path d="M32 64C49.6731 64 64 49.6731 64 32C64 14.3269 49.6731 0 32 0C14.3269 0 0 14.3269 0 32C0 49.6731 14.3269 64 32 64Z" fill="#FFA200"/>
<path d="M23.9004 41.6C24.9004 40.3 26.2004 39.5 27.6004 38.9C29.0004 38.3 30.6004 38.1 32.1004 38.1C33.6004 38.2 35.1004 38.5 36.5004 39.1C37.2004 39.4 37.8004 39.8 38.4004 40.2C39.0004 40.6 39.5004 41.1 40.0004 41.7C40.3004 42.1 40.3004 42.7 39.9004 43C39.7004 43.1 39.5004 43.2 39.3004 43.2H39.2004C38.5004 43.2 37.8004 43.1 37.2004 43.1C36.6004 43.1 36.0004 43 35.4004 42.9C34.2004 42.8 33.1004 42.8 31.9004 42.7C30.8004 42.7 29.7004 42.8 28.5004 42.9C27.4004 43 26.1004 43.2 24.9004 43.3H24.6004C24.0004 43.4 23.5004 42.9 23.4004 42.3C23.6004 42.1 23.7004 41.9 23.9004 41.6Z" fill="#1A1A54"/>
<path d="M44.5 31C48.6421 31 52 27.6421 52 23.5C52 19.3579 48.6421 16 44.5 16C40.3579 16 37 19.3579 37 23.5C37 27.6421 40.3579 31 44.5 31Z" fill="white"/>
<path d="M44.5 31C48.6421 31 52 27.6421 52 23.5C52 19.3579 48.6421 16 44.5 16C40.3579 16 37 19.3579 37 23.5C37 27.6421 40.3579 31 44.5 31Z" fill="white"/>
<path d="M44.5 31C48.6421 31 52 27.6421 52 23.5C52 19.3579 48.6421 16 44.5 16C40.3579 16 37 19.3579 37 23.5C37 27.6421 40.3579 31 44.5 31Z" fill="white"/>
<path d="M43.5 26C45.9853 26 48 23.9853 48 21.5C48 19.0147 45.9853 17 43.5 17C41.0147 17 39 19.0147 39 21.5C39 23.9853 41.0147 26 43.5 26Z" fill="#1A1A54"/>
<path d="M19.5 31C23.6421 31 27 27.6421 27 23.5C27 19.3579 23.6421 16 19.5 16C15.3579 16 12 19.3579 12 23.5C12 27.6421 15.3579 31 19.5 31Z" fill="white"/>
<path d="M18.5 26C20.9853 26 23 23.9853 23 21.5C23 19.0147 20.9853 17 18.5 17C16.0147 17 14 19.0147 14 21.5C14 23.9853 16.0147 26 18.5 26Z" fill="#1A1A54"/>
</g>
<defs>
<clipPath id="clip0_3220_80697">
<rect width="64" height="64" fill="white"/>
</clipPath>
</defs>
</svg>
