<svg width="64" height="64" viewBox="0 0 64 64" fill="none" xmlns="http://www.w3.org/2000/svg">
<g clip-path="url(#clip0_3220_80597)">
<path d="M50.707 45.2927L18.707 13.2927C18.4678 13.0534 18.125 12.9523 17.793 13.0212C17.4624 13.0915 17.189 13.3239 17.0674 13.6394L0.350098 56.9064C0.117676 57.5085 0 58.1408 0 58.7854C0 61.6604 2.33936 63.9997 5.21436 63.9997C5.85889 63.9997 6.49121 63.882 7.09326 63.6491L50.3604 46.9323C50.6758 46.8107 50.9082 46.5373 50.9785 46.2067C51.0483 45.8757 50.9463 45.5319 50.707 45.2927Z" fill="#FFA5A6"/>
<path d="M50.707 45.2927L18.707 13.2927C18.4678 13.0534 18.125 12.9523 17.793 13.0212C17.4624 13.0915 17.189 13.3239 17.0674 13.6394L0.350098 56.9064C0.117676 57.5085 0 58.1408 0 58.7854C0 61.6604 2.33936 63.9997 5.21436 63.9997C5.85889 63.9997 6.49121 63.882 7.09326 63.6491L50.3604 46.9323C50.6758 46.8107 50.9082 46.5373 50.9785 46.2067C51.0483 45.8757 50.9463 45.5319 50.707 45.2927Z" fill="#FFA5A6"/>
<path d="M50.1247 36.787C48.092 32.5653 44.6262 27.8949 40.3659 23.6351C36.1061 19.3749 31.4357 15.909 27.2141 13.8763C22.6428 11.6737 19.1198 11.4667 17.2951 13.2919C15.4699 15.1166 15.6774 18.6395 17.8796 23.2108C19.9123 27.4325 23.3781 32.1029 27.6384 36.3627C31.8981 40.6229 36.5686 44.0887 40.7902 46.1214C43.3005 47.3309 45.4943 47.9383 47.2648 47.9383C48.7185 47.9383 49.8864 47.5287 50.7092 46.7059C52.5344 44.8812 52.3269 41.3583 50.1247 36.787Z" fill="#72A4D6"/>
<path d="M29.9994 23.9996C29.8495 23.9996 29.6967 23.9659 29.5531 23.8941C29.059 23.6471 28.8588 23.0465 29.1058 22.5523L29.9828 20.7984C32.5394 15.6851 33.2645 9.79599 32.0243 4.2164C31.9042 3.67733 32.2445 3.14315 32.7836 3.02352C33.3217 2.90536 33.8568 3.24374 33.9765 3.7828C35.3158 9.80917 34.5331 16.17 31.7719 21.693L30.8949 23.4469C30.7196 23.7975 30.3666 23.9996 29.9994 23.9996Z" fill="#2D5785"/>
<path d="M23 11C22.4478 11 22 10.5522 22 10V7.9165C21.6748 7.97168 21.3408 8 21 8C19.3457 8 18 6.6543 18 5C18 3.3457 19.3457 2 21 2C22.5405 2 23.814 3.16748 23.9814 4.66406C24.6147 3.95605 25 3.02246 25 2V1C25 0.447754 25.4478 0 26 0C26.5522 0 27 0.447754 27 1V2C27 4.21631 25.792 6.15576 24 7.19482V10C24 10.5522 23.5522 11 23 11ZM21 4C20.4487 4 20 4.44873 20 5C20 5.55127 20.4487 6 21 6C21.3452 6 21.6802 5.95605 22 5.87354V5C22 4.44873 21.5513 4 21 4Z" fill="#2D5785"/>
<path d="M41.0014 35.0017C40.6342 35.0017 40.2811 34.7995 40.1058 34.4489C39.8588 33.9548 40.059 33.3542 40.5531 33.1071L42.307 32.2302C47.8305 29.4689 54.1918 28.6867 60.2172 30.0256C60.7562 30.1452 61.0966 30.6794 60.9765 31.2185C60.8563 31.758 60.3217 32.0969 59.7836 31.9777C54.2025 30.7375 48.3139 31.4626 43.2015 34.0192L41.4476 34.8962C41.3041 34.968 41.1513 35.0017 41.0014 35.0017Z" fill="#2D5785"/>
<path d="M59 46C57.3457 46 56 44.6543 56 43C56 42.6592 56.0283 42.3252 56.0835 42H54C53.4478 42 53 41.5522 53 41C53 40.4478 53.4478 40 54 40H56.8052C57.8442 38.208 59.7837 37 62 37H63C63.5522 37 64 37.4478 64 38C64 38.5522 63.5522 39 63 39H62C60.9775 39 60.0439 39.3853 59.3359 40.0186C60.8325 40.186 62 41.4595 62 43C62 44.6543 60.6543 46 59 46ZM58.1265 42C58.0439 42.3198 58 42.6548 58 43C58 43.5513 58.4487 44 59 44C59.5513 44 60 43.5513 60 43C60 42.4487 59.5513 42 59 42H58.1265Z" fill="#2D5785"/>
<path d="M36 29C35.7441 29 35.4883 28.9023 35.293 28.707C34.9023 28.3164 34.9023 27.6836 35.293 27.293L49.793 12.793C50.1836 12.4023 50.8164 12.4023 51.207 12.793C51.5977 13.1836 51.5977 13.8164 51.207 14.207L36.707 28.707C36.5117 28.9023 36.2559 29 36 29Z" fill="#2D5785"/>
<path d="M29.8 54.3942C20.53 50.3586 13.3044 27.9504 13.0012 26.9982L12.5068 25.4445L7.77148 37.7004L8.00122 39.9982C8.05151 40.5009 9.18048 50.8668 16.7403 59.9209L30.4258 54.6333C30.2175 54.5626 30.0089 54.4852 29.8 54.3942Z" fill="#EF544F"/>
<path d="M58.5552 54.1685L58.186 53.9219C56.6733 52.9136 55.5234 51.4087 54.9487 49.6841C54.8125 49.2754 54.4307 49 54 49C53.5693 49 53.1875 49.2754 53.0513 49.6841C52.4766 51.4087 51.3267 52.9136 49.8135 53.9224L49.4448 54.1685C49.167 54.354 49 54.666 49 55C49 55.334 49.167 55.646 49.4448 55.8315L49.814 56.0781C51.3267 57.0864 52.4766 58.5913 53.0513 60.3159C53.1875 60.7246 53.5693 61 54 61C54.4307 61 54.8125 60.7246 54.9487 60.3159C55.5234 58.5913 56.6733 57.0864 58.1865 56.0776L58.5552 55.8315C58.833 55.646 59 55.334 59 55C59 54.666 58.833 54.354 58.5552 54.1685Z" fill="#EF544F"/>
<path d="M11.5552 15.1685L11.186 14.9219C9.67334 13.9136 8.52344 12.4087 7.94873 10.6841C7.8125 10.2754 7.43066 10 7 10C6.56934 10 6.1875 10.2754 6.05127 10.6841C5.47656 12.4087 4.32666 13.9136 2.81348 14.9224L2.44482 15.1685C2.16699 15.354 2 15.666 2 16C2 16.334 2.16699 16.646 2.44482 16.8315L2.81396 17.0781C4.32666 18.0864 5.47656 19.5913 6.05127 21.3159C6.1875 21.7246 6.56934 22 7 22C7.43066 22 7.8125 21.7246 7.94873 21.3159C8.52344 19.5913 9.67334 18.0864 11.1865 17.0776L11.5552 16.8315C11.833 16.646 12 16.334 12 16C12 15.666 11.833 15.354 11.5552 15.1685Z" fill="#EF544F"/>
<path d="M60 3H54C53.4477 3 53 3.44772 53 4V10C53 10.5523 53.4477 11 54 11H60C60.5523 11 61 10.5523 61 10V4C61 3.44772 60.5523 3 60 3Z" fill="#EF544F"/>
<path d="M39.9992 14.0005C39.8239 14.0005 39.6467 13.9546 39.4855 13.8579C39.0119 13.5737 38.8586 12.9595 39.1427 12.4858L42.1427 7.48585C42.4269 7.01173 43.0407 6.85841 43.5148 7.14307C43.9884 7.42725 44.1418 8.04151 43.8576 8.51514L40.8576 13.5151C40.6701 13.8276 40.339 14.0005 39.9992 14.0005Z" fill="#2D5785"/>
<path d="M51.0011 25.0001C50.6613 25.0001 50.3302 24.8272 50.1427 24.5147C49.8586 24.0411 50.0119 23.4268 50.4855 23.1426L55.4855 20.1426C55.9587 19.8589 56.5739 20.0113 56.8576 20.4854C57.1418 20.959 56.9884 21.5733 56.5148 21.8575L51.5148 24.8575C51.3537 24.9542 51.1764 25.0001 51.0011 25.0001Z" fill="#2D5785"/>
</g>
<defs>
<clipPath id="clip0_3220_80597">
<rect width="64" height="64" fill="white"/>
</clipPath>
</defs>
</svg>
