<svg width="19" height="18" viewBox="0 0 19 18" fill="none" xmlns="http://www.w3.org/2000/svg">
<path d="M17.4602 10.4625C17.4158 10.4958 17.3654 10.52 17.3117 10.5337C17.2581 10.5475 17.2022 10.5505 17.1474 10.5427C17.0925 10.5348 17.0398 10.5163 16.9921 10.488C16.9444 10.4598 16.9028 10.4225 16.8695 10.3782C16.5175 9.90488 16.0592 9.52089 15.5316 9.2571C15.004 8.99331 14.4219 8.85709 13.832 8.8594C13.7201 8.8594 13.6128 8.81496 13.5337 8.73584C13.4546 8.65672 13.4102 8.54942 13.4102 8.43753C13.4102 8.32564 13.4546 8.21833 13.5337 8.13922C13.6128 8.0601 13.7201 8.01565 13.832 8.01565C14.1739 8.01558 14.509 7.91963 14.7991 7.73869C15.0892 7.55776 15.3227 7.29909 15.4732 6.99208C15.6237 6.68507 15.685 6.34201 15.6503 6.00187C15.6156 5.66174 15.4862 5.33816 15.2768 5.06788C15.0674 4.7976 14.7864 4.59147 14.4657 4.47288C14.145 4.3543 13.7975 4.32802 13.4626 4.39703C13.1278 4.46604 12.819 4.62758 12.5713 4.86329C12.3236 5.09901 12.147 5.39945 12.0616 5.7305C12.0336 5.83884 11.9637 5.93164 11.8673 5.98847C11.7709 6.0453 11.6559 6.06152 11.5476 6.03354C11.4392 6.00557 11.3464 5.93571 11.2896 5.83931C11.2328 5.74292 11.2166 5.6279 11.2445 5.51956C11.3506 5.10713 11.5537 4.72602 11.8369 4.40799C12.1201 4.08997 12.4752 3.84425 12.8726 3.6913C13.2701 3.53836 13.6983 3.48263 14.1216 3.52875C14.545 3.57488 14.9512 3.72152 15.3063 3.95647C15.6615 4.19141 15.9554 4.50784 16.1635 4.87939C16.3715 5.25095 16.4878 5.66685 16.5025 6.09244C16.5173 6.51803 16.43 6.94098 16.2482 7.32604C16.0663 7.71109 15.795 8.04709 15.457 8.30604C16.2889 8.61648 17.0137 9.16014 17.5445 9.8719C17.5778 9.91622 17.602 9.96666 17.6157 10.0203C17.6295 10.074 17.6325 10.1298 17.6247 10.1847C17.6168 10.2395 17.5983 10.2923 17.57 10.34C17.5418 10.3876 17.5045 10.4293 17.4602 10.4625ZM13.6345 14.9766C13.6622 15.0246 13.6803 15.0775 13.6875 15.1325C13.6948 15.1874 13.6912 15.2432 13.6769 15.2968C13.6626 15.3503 13.6379 15.4005 13.6042 15.4445C13.5705 15.4885 13.5284 15.5254 13.4805 15.5532C13.4165 15.5906 13.3437 15.6103 13.2695 15.6101C13.1954 15.6102 13.1226 15.5907 13.0584 15.5537C12.9943 15.5166 12.941 15.4633 12.9039 15.3992C12.5372 14.7779 12.0148 14.2629 11.3883 13.9052C10.7618 13.5475 10.0528 13.3593 9.33133 13.3593C8.60988 13.3593 7.90089 13.5475 7.27437 13.9052C6.64785 14.2629 6.12546 14.7779 5.75875 15.3992C5.73238 15.4496 5.69608 15.4941 5.65204 15.5302C5.60799 15.5662 5.55712 15.5929 5.50248 15.6088C5.44783 15.6246 5.39054 15.6293 5.33406 15.6224C5.27758 15.6156 5.22307 15.5973 5.17381 15.5689C5.12455 15.5404 5.08156 15.5022 5.04742 15.4567C5.01328 15.4112 4.98871 15.3593 4.97517 15.304C4.96164 15.2487 4.95942 15.1913 4.96865 15.1351C4.97789 15.079 4.99838 15.0253 5.02891 14.9773C5.60352 13.99 6.50323 13.233 7.57422 12.8356C6.98919 12.4557 6.54263 11.8969 6.30116 11.2425C6.05969 10.5881 6.03624 9.87319 6.23432 9.20437C6.4324 8.53555 6.84139 7.94869 7.40028 7.53133C7.95917 7.11397 8.63802 6.88847 9.33555 6.88847C10.0331 6.88847 10.7119 7.11397 11.2708 7.53133C11.8297 7.94869 12.2387 8.53555 12.4368 9.20437C12.6348 9.87319 12.6114 10.5881 12.3699 11.2425C12.1285 11.8969 11.6819 12.4557 11.0969 12.8356C12.1649 13.2343 13.0616 13.9909 13.6345 14.9766ZM9.33203 12.5157C9.80485 12.5157 10.2671 12.3754 10.6602 12.1128C11.0533 11.8501 11.3597 11.4767 11.5407 11.0399C11.7216 10.6031 11.769 10.1224 11.6767 9.65864C11.5845 9.1949 11.3568 8.76894 11.0225 8.4346C10.6881 8.10027 10.2622 7.87258 9.79842 7.78034C9.33468 7.6881 8.85401 7.73544 8.41718 7.91638C7.98035 8.09732 7.60698 8.40373 7.3443 8.79687C7.08161 9.19 6.94141 9.65221 6.94141 10.125C6.94141 10.7591 7.19327 11.3671 7.6416 11.8155C8.08993 12.2638 8.698 12.5157 9.33203 12.5157ZM5.25391 8.43753C5.25391 8.32564 5.20946 8.21833 5.13034 8.13922C5.05122 8.0601 4.94392 8.01565 4.83203 8.01565C4.49017 8.01555 4.15518 7.91958 3.86511 7.73866C3.57505 7.55773 3.34152 7.2991 3.19106 6.99212C3.0406 6.68515 2.97923 6.34213 3.01392 6.00203C3.04861 5.66193 3.17796 5.33837 3.3873 5.06809C3.59664 4.79782 3.87757 4.59165 4.19819 4.47302C4.51881 4.35438 4.86627 4.32802 5.20112 4.39693C5.53597 4.46584 5.84478 4.62727 6.0925 4.86287C6.34021 5.09847 6.5169 5.39882 6.6025 5.72979C6.61635 5.78344 6.64063 5.83383 6.67396 5.8781C6.70728 5.92236 6.749 5.95963 6.79673 5.98777C6.84446 6.01591 6.89726 6.03437 6.95212 6.04211C7.00699 6.04984 7.06284 6.04669 7.11648 6.03284C7.17013 6.01899 7.22053 5.99471 7.26479 5.96138C7.30905 5.92806 7.34632 5.88634 7.37446 5.83861C7.4026 5.79088 7.42106 5.73808 7.4288 5.68322C7.43653 5.62835 7.43338 5.5725 7.41953 5.51886C7.31349 5.10642 7.1104 4.72531 6.82719 4.40729C6.54399 4.08927 6.18887 3.84354 5.79143 3.6906C5.394 3.53766 4.96576 3.48192 4.54242 3.52805C4.11908 3.57417 3.7129 3.72082 3.35773 3.95576C3.00256 4.19071 2.70869 4.50714 2.50061 4.87869C2.29254 5.25024 2.17629 5.66615 2.16155 6.09174C2.14681 6.51733 2.23401 6.94028 2.41589 7.32533C2.59776 7.71039 2.86904 8.04639 3.20711 8.30534C2.37511 8.61597 1.65031 9.15988 1.11953 9.8719C1.08629 9.91622 1.0621 9.96666 1.04836 10.0203C1.03461 10.074 1.03156 10.1298 1.0394 10.1847C1.04723 10.2395 1.06579 10.2923 1.09402 10.34C1.12225 10.3876 1.15959 10.4293 1.20391 10.4625C1.24823 10.4958 1.29866 10.52 1.35233 10.5337C1.406 10.5475 1.46185 10.5505 1.51669 10.5427C1.57154 10.5348 1.6243 10.5163 1.67197 10.488C1.71965 10.4598 1.76129 10.4225 1.79453 10.3782C2.14659 9.90488 2.60486 9.52089 3.13244 9.2571C3.66003 8.99331 4.24218 8.85709 4.83203 8.8594C4.94392 8.8594 5.05122 8.81496 5.13034 8.73584C5.20946 8.65672 5.25391 8.54942 5.25391 8.43753Z" fill="#656565"/>
</svg>
