<svg width="57" height="34" viewBox="0 0 57 34" fill="none" xmlns="http://www.w3.org/2000/svg">
<path d="M16.6133 33.2C7.45327 33.2 0.0133362 25.7467 0.0133362 16.6C0.0133362 7.45333 7.4666 0 16.6133 0C25.7599 0 33.2134 7.45333 33.2134 16.6C33.2134 25.7467 25.7599 33.2 16.6133 33.2ZM16.6133 9.65333C12.7866 9.65333 9.66666 12.7733 9.66666 16.6C9.66666 20.4267 12.7866 23.5467 16.6133 23.5467C20.4399 23.5467 23.56 20.4267 23.56 16.6C23.56 12.7733 20.4399 9.65333 16.6133 9.65333Z" fill="#EF544F"/>
<path d="M40.16 33.2C31 33.2 23.5601 25.7467 23.5601 16.6C23.5601 7.45333 31.0133 0 40.16 0C49.3067 0 56.7601 7.45333 56.7601 16.6C56.7601 25.7467 49.3067 33.2 40.16 33.2ZM40.16 9.65333C36.3333 9.65333 33.2134 12.7733 33.2134 16.6C33.2134 20.4267 36.3333 23.5467 40.16 23.5467C43.9867 23.5467 47.1066 20.4267 47.1066 16.6C47.1066 12.7733 43.9867 9.65333 40.16 9.65333Z" fill="#8F4FEF"/>
<path d="M56.7601 16.6C56.7601 25.76 49.3067 33.2 40.16 33.2C31.0133 33.2 23.5601 25.7467 23.5601 16.6C23.5601 12.7733 20.4399 9.65333 16.6133 9.65333C12.7866 9.65333 9.66667 12.7733 9.66667 16.6H0C0 7.44 7.45327 0 16.5999 0C25.7466 0 33.2 7.45333 33.2 16.6C33.2 20.4267 36.32 23.5467 40.1466 23.5467C43.9733 23.5467 47.0934 20.4267 47.0934 16.6H56.7601Z" fill="url(#paint0_linear_1_32)"/>
<defs>
<linearGradient id="paint0_linear_1_32" x1="0" y1="16.6" x2="56.7601" y2="16.6" gradientUnits="userSpaceOnUse">
<stop stop-color="#EF544F"/>
<stop offset="1" stop-color="#8F4FEF"/>
</linearGradient>
</defs>
</svg>
