<svg width="19" height="18" viewBox="0 0 19 18" fill="none" xmlns="http://www.w3.org/2000/svg">
<g clip-path="url(#clip0_3220_80507)">
<path d="M18.0211 2.97686L15.7711 0.726856C15.6655 0.621308 15.5224 0.562012 15.3731 0.562012C15.2239 0.562012 15.0807 0.621308 14.9752 0.726856C14.8696 0.832404 14.8103 0.975557 14.8103 1.12482C14.8103 1.27409 14.8696 1.41725 14.9752 1.52279L15.0792 1.62615L11.2001 4.53568L8.51273 5.07357C8.40392 5.09537 8.30391 5.14867 8.22515 5.22685L2.36531 11.0853C2.04887 11.4018 1.87109 11.831 1.87109 12.2785C1.87109 12.726 2.04887 13.1552 2.36531 13.4717L5.27625 16.3826C5.59271 16.6991 6.02192 16.8769 6.46945 16.8769C6.91699 16.8769 7.34619 16.6991 7.66265 16.3826L13.5211 10.5249C13.5994 10.4463 13.6528 10.3462 13.6744 10.2373L14.2123 7.54998L17.1218 3.67084L17.2252 3.7749C17.2774 3.82716 17.3395 3.86862 17.4077 3.8969C17.476 3.92519 17.5492 3.93975 17.6231 3.93975C17.697 3.93975 17.7702 3.92519 17.8385 3.8969C17.9068 3.86862 17.9688 3.82716 18.0211 3.7749C18.0734 3.72264 18.1148 3.6606 18.1431 3.59231C18.1714 3.52403 18.1859 3.45084 18.1859 3.37693C18.1859 3.30302 18.1714 3.22984 18.1431 3.16155C18.1148 3.09327 18.0734 3.03123 18.0211 2.97896V2.97686ZM6.46945 15.7498C6.39565 15.75 6.32253 15.7356 6.25434 15.7073C6.18615 15.6791 6.12424 15.6376 6.07219 15.5853L3.16265 12.6758C3.05725 12.5703 2.99803 12.4273 2.99803 12.2781C2.99803 12.129 3.05725 11.986 3.16265 11.8805L3.56062 11.4826L7.26539 15.1873L6.86531 15.5853C6.76025 15.6902 6.61795 15.7494 6.46945 15.7498ZM13.2356 6.97482C13.1852 7.04193 13.1506 7.11957 13.1344 7.20193L12.6049 9.84779L11.9981 10.4546L8.29336 6.74982L8.90016 6.14303L11.546 5.61357C11.6284 5.59737 11.706 5.56276 11.7731 5.51232L15.8829 2.42982L16.3181 2.86506L13.2356 6.97482Z" fill="#34C759"/>
</g>
<defs>
<clipPath id="clip0_3220_80507">
<rect width="18" height="18" fill="white" transform="translate(0.75)"/>
</clipPath>
</defs>
</svg>
