<svg width="65" height="58" viewBox="0 0 65 58" fill="none" xmlns="http://www.w3.org/2000/svg">
<path d="M59.223 5.59519C52.8324 -0.881739 42.8516 -1.45791 35.7973 3.82407C36.4101 4.8419 37.0427 5.85077 37.6334 6.87981C38.7903 8.8258 39.872 10.8077 40.936 12.7963C42.0265 14.7736 43.0772 16.769 44.0926 18.78L45.3379 21.2416L42.71 22.7392C37.7506 25.5663 32.6916 28.1983 27.584 30.7272C28.9975 35.4599 30.3092 40.2307 31.4573 45.0553C31.8311 46.4879 32.1165 47.9497 32.4372 49.3957C32.7536 50.8462 33.0765 52.2945 33.3353 53.7652C33.5344 54.8055 33.7136 55.8547 33.895 56.8994C34.4436 56.46 34.9833 55.9959 35.4899 55.4803L59.223 31.4267C66.2596 24.2951 66.2596 12.729 59.223 5.59519Z" fill="#EF544F"/>
<path d="M28.7449 50.6415C28.1454 49.2874 27.5083 47.9467 26.9598 46.5747C24.6459 41.129 22.5202 35.6184 20.5824 30.0472L19.6622 27.3972L22.2193 26.0431C27.2739 23.3685 32.4058 20.8531 37.6042 18.4699C37.1618 17.2951 36.7039 16.1271 36.2836 14.9389C35.5049 12.818 34.7418 10.6882 34.056 8.5247C33.7817 7.70639 33.545 6.8724 33.284 6.04961L32.7465 6.5944L31.4812 5.5945C24.4424 -1.53931 12.7495 -1.53931 5.71075 5.5945C-1.33023 12.7283 -1.18866 24.2944 5.85011 31.426L29.7226 55.4796C30.3464 56.1096 31.0565 56.6656 31.8506 57.1835C31.4347 56.3517 31.0145 55.52 30.6119 54.6837C29.9482 53.3498 29.3532 51.9934 28.7449 50.6415Z" fill="#EF544F"/>
</svg>
