<svg width="151" height="34" viewBox="0 0 151 34" fill="none" xmlns="http://www.w3.org/2000/svg">
<path d="M62.0534 0H69.32V8.36H72.8133V15.0267H69.32V32.7467H62.0534V15.0267H59.2799V8.36H62.0534V0Z" fill="white"/>
<path d="M92.1867 11.7997L87.2534 14.7997C85.8268 13.3597 84.4933 12.6397 83.2666 12.6397C82.6533 12.6397 82.1334 12.813 81.6934 13.1464C81.2534 13.4797 81.04 13.9064 81.04 14.3864C81.04 15.173 81.2933 15.7597 81.8 16.1197C82.3066 16.4797 83.6533 17.0264 85.8267 17.7864C88 18.533 89.72 19.493 90.9867 20.6664C92.24 21.8397 92.8667 23.4664 92.8667 25.5464C92.8667 27.6264 91.92 29.4397 90.0267 30.9464C88.1334 32.453 85.8667 33.1997 83.2267 33.1997C81.4267 33.1997 79.64 32.693 77.8534 31.693C76.0667 30.693 74.5466 29.1597 73.3066 27.093L79.1733 24.4264C80.4933 26.7197 81.8666 27.853 83.2799 27.853C83.9199 27.853 84.4933 27.6397 85.0133 27.2264C85.52 26.813 85.7733 26.3464 85.7733 25.813C85.7733 25.133 85.4801 24.6264 84.8934 24.2664C84.3067 23.9197 83.8668 23.7464 83.5868 23.7464C83.4668 23.613 82.7867 23.3464 81.5467 22.9464C76.6667 21.3597 74.2267 18.773 74.2267 15.1997C74.2267 13.0397 75.1067 11.2797 76.8534 9.90636C78.6 8.53303 80.88 7.85303 83.7067 7.85303C86.8267 7.85303 89.6534 9.1597 92.1867 11.773V11.7997Z" fill="white"/>
<path d="M112.307 32.7596V28.5863H112.187C111.053 30.213 109.907 31.3863 108.76 32.1196C107.6 32.853 106.173 33.213 104.48 33.213C101.627 33.213 99.2 31.9863 97.1867 29.5196C95.1867 27.0663 94.1867 24.0796 94.1867 20.5596C94.1867 17.0396 95.2534 14.093 97.3867 11.613C99.52 9.13297 102.053 7.87964 104.987 7.87964C106.387 7.87964 107.64 8.18631 108.76 8.81297C109.88 9.43964 111.053 10.4263 112.307 11.7863V8.41297H119.573V32.7463H112.307V32.7596ZM106.973 15.1463C105.533 15.1463 104.333 15.7196 103.373 16.8663C102.413 18.013 101.933 19.453 101.933 21.1863C101.933 22.813 102.387 24.1196 103.307 25.1196C104.227 26.1063 105.427 26.613 106.92 26.613C108.413 26.613 109.587 26.0396 110.613 24.893C111.64 23.7463 112.147 22.3596 112.147 20.733C112.147 19.2263 111.64 17.9063 110.613 16.7996C109.587 15.693 108.387 15.1463 106.987 15.1463H106.973Z" fill="white"/>
<path d="M121.427 8.35986H129.093L135.787 22.6532L142.467 8.35986H150.067L138.707 32.7465H132.787L121.427 8.35986Z" fill="white"/>
<path d="M16.6133 33.3335C7.45327 33.3335 0.0133362 25.8802 0.0133362 16.7335C0.0133362 7.58688 7.4666 0.133545 16.6133 0.133545C25.7599 0.133545 33.2134 7.58688 33.2134 16.7335C33.2134 25.8802 25.7599 33.3335 16.6133 33.3335ZM16.6133 9.78688C12.7866 9.78688 9.66666 12.9069 9.66666 16.7335C9.66666 20.5602 12.7866 23.6802 16.6133 23.6802C20.4399 23.6802 23.56 20.5602 23.56 16.7335C23.56 12.9069 20.4399 9.78688 16.6133 9.78688Z" fill="#EF544F"/>
<path d="M40.16 33.3335C31 33.3335 23.5601 25.8802 23.5601 16.7335C23.5601 7.58688 31.0133 0.133545 40.16 0.133545C49.3067 0.133545 56.7601 7.58688 56.7601 16.7335C56.7601 25.8802 49.3067 33.3335 40.16 33.3335ZM40.16 9.78688C36.3333 9.78688 33.2134 12.9069 33.2134 16.7335C33.2134 20.5602 36.3333 23.6802 40.16 23.6802C43.9867 23.6802 47.1066 20.5602 47.1066 16.7335C47.1066 12.9069 43.9867 9.78688 40.16 9.78688Z" fill="#8F4FEF"/>
<path d="M56.7601 16.7335C56.7601 25.8935 49.3067 33.3335 40.16 33.3335C31.0133 33.3335 23.5601 25.8802 23.5601 16.7335C23.5601 12.9069 20.4399 9.78688 16.6133 9.78688C12.7866 9.78688 9.66667 12.9069 9.66667 16.7335H0C0 7.57355 7.45327 0.133545 16.5999 0.133545C25.7466 0.133545 33.2 7.58688 33.2 16.7335C33.2 20.5602 36.32 23.6802 40.1466 23.6802C43.9733 23.6802 47.0934 20.5602 47.0934 16.7335H56.7601Z" fill="url(#paint0_linear_1_26)"/>
<defs>
<linearGradient id="paint0_linear_1_26" x1="0" y1="16.7335" x2="56.7601" y2="16.7335" gradientUnits="userSpaceOnUse">
<stop stop-color="#EF544F"/>
<stop offset="1" stop-color="#8F4FEF"/>
</linearGradient>
</defs>
</svg>
