<svg width="240" height="50" viewBox="0 0 240 50" fill="none" xmlns="http://www.w3.org/2000/svg">
<rect x="0.5" y="0.5" width="239" height="49" rx="24.5" fill="#242424"/>
<rect x="0.5" y="0.5" width="239" height="49" rx="24.5" stroke="#242424"/>
<path d="M74.8051 24.4617L65.0898 35.0059C65.0908 35.0078 65.0908 35.0106 65.0917 35.0125C65.3901 36.1574 66.412 37 67.6256 37C68.1111 37 68.5664 36.8656 68.957 36.6305L68.988 36.6118L79.9232 30.1593L74.8051 24.4617Z" fill="#EA4335"/>
<path d="M84.6332 22.6662L84.624 22.6597L79.9029 19.8612L74.584 24.7013L79.922 30.1582L84.6177 27.3878C85.4407 26.9324 86.0001 26.045 86.0001 25.0223C86.0001 24.0052 85.4489 23.1225 84.6332 22.6662Z" fill="#FBBC04"/>
<path d="M65.0894 14.9933C65.031 15.2135 65 15.4449 65 15.6838V34.3163C65 34.5552 65.031 34.7866 65.0903 35.0059L75.1386 24.7313L65.0894 14.9933Z" fill="#4285F4"/>
<path d="M74.8771 24.9999L79.9049 19.8594L68.9825 13.3835C68.5856 13.14 68.122 13 67.6265 13C66.4129 13 65.3891 13.8445 65.0908 14.9904C65.0908 14.9913 65.0898 14.9922 65.0898 14.9932L74.8771 24.9999Z" fill="#34A853"/>
<path d="M102.074 22.168C101.309 22.168 100.641 22.0093 100.072 21.692C99.512 21.3747 99.078 20.9127 98.77 20.306C98.462 19.6993 98.3127 18.962 98.322 18.094C98.3407 17.2167 98.5133 16.47 98.84 15.854C99.1667 15.238 99.624 14.7713 100.212 14.454C100.809 14.1367 101.495 13.978 102.27 13.978C103.306 13.978 104.123 14.2113 104.72 14.678C105.317 15.1353 105.705 15.8073 105.882 16.694L104.762 16.848C104.669 16.4187 104.501 16.0733 104.258 15.812C104.015 15.5507 103.721 15.364 103.376 15.252C103.04 15.1307 102.671 15.07 102.27 15.07C101.327 15.07 100.623 15.3407 100.156 15.882C99.6893 16.414 99.456 17.128 99.456 18.024C99.456 18.9853 99.708 19.732 100.212 20.264C100.725 20.7867 101.444 21.048 102.368 21.048C102.788 21.048 103.175 20.978 103.53 20.838C103.885 20.6887 104.183 20.4693 104.426 20.18C104.669 19.8813 104.823 19.5127 104.888 19.074H102.942V18.192H106.036V22H105.238L104.972 20.446H104.944C104.879 20.6233 104.771 20.8147 104.622 21.02C104.482 21.216 104.295 21.4027 104.062 21.58C103.829 21.748 103.544 21.888 103.208 22C102.881 22.112 102.503 22.168 102.074 22.168ZM109.891 22.14C109.247 22.14 108.72 22 108.309 21.72C107.898 21.4307 107.595 21.062 107.399 20.614C107.203 20.1567 107.105 19.6853 107.105 19.2C107.096 18.6493 107.198 18.15 107.413 17.702C107.637 17.254 107.954 16.8993 108.365 16.638C108.785 16.3767 109.284 16.246 109.863 16.246C110.367 16.246 110.815 16.358 111.207 16.582C111.599 16.7967 111.912 17.1047 112.145 17.506C112.378 17.898 112.504 18.3647 112.523 18.906C112.532 18.934 112.537 18.99 112.537 19.074C112.537 19.1487 112.537 19.214 112.537 19.27H108.211C108.211 19.8673 108.356 20.334 108.645 20.67C108.944 20.9967 109.354 21.16 109.877 21.16C110.269 21.16 110.6 21.062 110.871 20.866C111.151 20.6607 111.324 20.39 111.389 20.054H112.523C112.467 20.446 112.327 20.8007 112.103 21.118C111.879 21.4353 111.58 21.6873 111.207 21.874C110.834 22.0513 110.395 22.14 109.891 22.14ZM108.253 18.696H111.361C111.352 18.5933 111.324 18.458 111.277 18.29C111.24 18.122 111.165 17.9587 111.053 17.8C110.941 17.632 110.787 17.492 110.591 17.38C110.395 17.268 110.143 17.212 109.835 17.212C109.555 17.212 109.317 17.2587 109.121 17.352C108.925 17.4453 108.766 17.5713 108.645 17.73C108.524 17.8793 108.43 18.0427 108.365 18.22C108.309 18.388 108.272 18.5467 108.253 18.696ZM115.409 22C115.017 22 114.728 21.8973 114.541 21.692C114.355 21.4867 114.261 21.174 114.261 20.754V16.974H115.367V21.076H116.697V22H115.409ZM113.379 17.114V16.274C113.594 16.274 113.767 16.26 113.897 16.232C114.037 16.204 114.14 16.148 114.205 16.064C114.28 15.9707 114.331 15.826 114.359 15.63C114.387 15.4247 114.401 15.1493 114.401 14.804H115.367V16.274H116.683V17.114H113.379ZM121.399 22V16.274H122.561V22H121.399ZM121.987 15.476C121.716 15.476 121.53 15.406 121.427 15.266C121.334 15.126 121.287 14.9627 121.287 14.776C121.287 14.5987 121.334 14.4447 121.427 14.314C121.53 14.174 121.716 14.104 121.987 14.104C122.258 14.104 122.435 14.174 122.519 14.314C122.612 14.4447 122.659 14.5987 122.659 14.776C122.659 14.9627 122.612 15.126 122.519 15.266C122.435 15.406 122.258 15.476 121.987 15.476ZM125.635 22C125.243 22 124.954 21.8973 124.767 21.692C124.581 21.4867 124.487 21.174 124.487 20.754V16.974H125.593V21.076H126.923V22H125.635ZM123.605 17.114V16.274C123.82 16.274 123.993 16.26 124.123 16.232C124.263 16.204 124.366 16.148 124.431 16.064C124.506 15.9707 124.557 15.826 124.585 15.63C124.613 15.4247 124.627 15.1493 124.627 14.804H125.593V16.274H126.909V17.114H123.605ZM134.075 22.14C133.459 22.14 132.941 22.014 132.521 21.762C132.101 21.51 131.784 21.1647 131.569 20.726C131.364 20.278 131.261 19.774 131.261 19.214C131.261 18.6353 131.364 18.1267 131.569 17.688C131.784 17.24 132.101 16.89 132.521 16.638C132.941 16.386 133.464 16.26 134.089 16.26C135.004 16.26 135.699 16.5307 136.175 17.072C136.651 17.6133 136.889 18.3273 136.889 19.214C136.889 19.7647 136.786 20.264 136.581 20.712C136.385 21.1507 136.077 21.5007 135.657 21.762C135.246 22.014 134.719 22.14 134.075 22.14ZM134.075 21.146C134.532 21.146 134.882 21.048 135.125 20.852C135.368 20.656 135.531 20.4087 135.615 20.11C135.708 19.802 135.755 19.4893 135.755 19.172C135.755 18.8547 135.708 18.5467 135.615 18.248C135.531 17.94 135.368 17.688 135.125 17.492C134.882 17.2867 134.532 17.184 134.075 17.184C133.636 17.184 133.291 17.2867 133.039 17.492C132.796 17.688 132.628 17.94 132.535 18.248C132.442 18.5467 132.395 18.8547 132.395 19.172C132.395 19.4893 132.442 19.802 132.535 20.11C132.628 20.4087 132.796 20.656 133.039 20.852C133.291 21.048 133.636 21.146 134.075 21.146ZM138.051 22V16.274H139.045L139.241 17.604H139.269C139.278 17.5667 139.315 17.478 139.381 17.338C139.446 17.198 139.553 17.0487 139.703 16.89C139.852 16.722 140.053 16.5773 140.305 16.456C140.557 16.3347 140.874 16.274 141.257 16.274C141.658 16.274 141.985 16.3393 142.237 16.47C142.498 16.5913 142.703 16.7593 142.853 16.974C143.011 17.1793 143.123 17.4127 143.189 17.674C143.254 17.926 143.296 18.1873 143.315 18.458C143.333 18.7193 143.343 18.9667 143.343 19.2V22H142.209V19.186C142.209 18.8313 142.171 18.514 142.097 18.234C142.022 17.9447 141.887 17.7207 141.691 17.562C141.495 17.394 141.201 17.31 140.809 17.31C140.417 17.31 140.104 17.4033 139.871 17.59C139.647 17.7767 139.483 18.0193 139.381 18.318C139.287 18.6073 139.241 18.9247 139.241 19.27V22H138.051ZM102.074 36.168C101.309 36.168 100.641 36.0093 100.072 35.692C99.512 35.3747 99.078 34.9127 98.77 34.306C98.462 33.6993 98.3127 32.962 98.322 32.094C98.3407 31.2167 98.5133 30.47 98.84 29.854C99.1667 29.238 99.624 28.7713 100.212 28.454C100.809 28.1367 101.495 27.978 102.27 27.978C103.306 27.978 104.123 28.2113 104.72 28.678C105.317 29.1353 105.705 29.8073 105.882 30.694L104.762 30.848C104.669 30.4187 104.501 30.0733 104.258 29.812C104.015 29.5507 103.721 29.364 103.376 29.252C103.04 29.1307 102.671 29.07 102.27 29.07C101.327 29.07 100.623 29.3407 100.156 29.882C99.6893 30.414 99.456 31.128 99.456 32.024C99.456 32.9853 99.708 33.732 100.212 34.264C100.725 34.7867 101.444 35.048 102.368 35.048C102.788 35.048 103.175 34.978 103.53 34.838C103.885 34.6887 104.183 34.4693 104.426 34.18C104.669 33.8813 104.823 33.5127 104.888 33.074H102.942V32.192H106.036V36H105.238L104.972 34.446H104.944C104.879 34.6233 104.771 34.8147 104.622 35.02C104.482 35.216 104.295 35.4027 104.062 35.58C103.829 35.748 103.544 35.888 103.208 36C102.881 36.112 102.503 36.168 102.074 36.168ZM109.891 36.14C109.275 36.14 108.757 36.014 108.337 35.762C107.917 35.51 107.6 35.1647 107.385 34.726C107.18 34.278 107.077 33.774 107.077 33.214C107.077 32.6353 107.18 32.1267 107.385 31.688C107.6 31.24 107.917 30.89 108.337 30.638C108.757 30.386 109.28 30.26 109.905 30.26C110.82 30.26 111.515 30.5307 111.991 31.072C112.467 31.6133 112.705 32.3273 112.705 33.214C112.705 33.7647 112.602 34.264 112.397 34.712C112.201 35.1507 111.893 35.5007 111.473 35.762C111.062 36.014 110.535 36.14 109.891 36.14ZM109.891 35.146C110.348 35.146 110.698 35.048 110.941 34.852C111.184 34.656 111.347 34.4087 111.431 34.11C111.524 33.802 111.571 33.4893 111.571 33.172C111.571 32.8547 111.524 32.5467 111.431 32.248C111.347 31.94 111.184 31.688 110.941 31.492C110.698 31.2867 110.348 31.184 109.891 31.184C109.452 31.184 109.107 31.2867 108.855 31.492C108.612 31.688 108.444 31.94 108.351 32.248C108.258 32.5467 108.211 32.8547 108.211 33.172C108.211 33.4893 108.258 33.802 108.351 34.11C108.444 34.4087 108.612 34.656 108.855 34.852C109.107 35.048 109.452 35.146 109.891 35.146ZM116.499 36.14C115.883 36.14 115.365 36.014 114.945 35.762C114.525 35.51 114.207 35.1647 113.993 34.726C113.787 34.278 113.685 33.774 113.685 33.214C113.685 32.6353 113.787 32.1267 113.993 31.688C114.207 31.24 114.525 30.89 114.945 30.638C115.365 30.386 115.887 30.26 116.513 30.26C117.427 30.26 118.123 30.5307 118.599 31.072C119.075 31.6133 119.313 32.3273 119.313 33.214C119.313 33.7647 119.21 34.264 119.005 34.712C118.809 35.1507 118.501 35.5007 118.081 35.762C117.67 36.014 117.143 36.14 116.499 36.14ZM116.499 35.146C116.956 35.146 117.306 35.048 117.549 34.852C117.791 34.656 117.955 34.4087 118.039 34.11C118.132 33.802 118.179 33.4893 118.179 33.172C118.179 32.8547 118.132 32.5467 118.039 32.248C117.955 31.94 117.791 31.688 117.549 31.492C117.306 31.2867 116.956 31.184 116.499 31.184C116.06 31.184 115.715 31.2867 115.463 31.492C115.22 31.688 115.052 31.94 114.959 32.248C114.865 32.5467 114.819 32.8547 114.819 33.172C114.819 33.4893 114.865 33.802 114.959 34.11C115.052 34.4087 115.22 34.656 115.463 34.852C115.715 35.048 116.06 35.146 116.499 35.146ZM121.973 38.45V37.358H124.661V34.852H124.633C124.614 34.8893 124.567 34.978 124.493 35.118C124.418 35.2487 124.301 35.3933 124.143 35.552C123.993 35.7107 123.793 35.8507 123.541 35.972C123.298 36.084 122.995 36.14 122.631 36.14C122.08 36.14 121.623 36.014 121.259 35.762C120.895 35.51 120.624 35.1647 120.447 34.726C120.279 34.2873 120.195 33.7833 120.195 33.214C120.195 32.626 120.283 32.1127 120.461 31.674C120.638 31.226 120.909 30.8807 121.273 30.638C121.637 30.3953 122.094 30.274 122.645 30.274C123.018 30.274 123.331 30.3347 123.583 30.456C123.835 30.5773 124.031 30.722 124.171 30.89C124.32 31.058 124.427 31.212 124.493 31.352C124.567 31.492 124.609 31.5807 124.619 31.618H124.647V30.274H125.851V36.728C125.851 37.1387 125.799 37.47 125.697 37.722C125.594 37.974 125.431 38.156 125.207 38.268C124.992 38.3893 124.703 38.45 124.339 38.45H121.973ZM122.953 35.132C123.317 35.132 123.625 35.0527 123.877 34.894C124.129 34.7353 124.315 34.5113 124.437 34.222C124.567 33.9327 124.633 33.5967 124.633 33.214C124.633 32.8407 124.572 32.5093 124.451 32.22C124.329 31.9307 124.147 31.7113 123.905 31.562C123.671 31.4033 123.373 31.324 123.009 31.324C122.598 31.324 122.267 31.4127 122.015 31.59C121.772 31.7673 121.595 32.0007 121.483 32.29C121.38 32.5793 121.329 32.8873 121.329 33.214C121.329 33.5407 121.375 33.8533 121.469 34.152C121.571 34.4413 121.739 34.6793 121.973 34.866C122.215 35.0433 122.542 35.132 122.953 35.132ZM127.25 36V28.118H128.398V36H127.25ZM132.357 36.14C131.713 36.14 131.186 36 130.775 35.72C130.365 35.4307 130.061 35.062 129.865 34.614C129.669 34.1567 129.571 33.6853 129.571 33.2C129.562 32.6493 129.665 32.15 129.879 31.702C130.103 31.254 130.421 30.8993 130.831 30.638C131.251 30.3767 131.751 30.246 132.329 30.246C132.833 30.246 133.281 30.358 133.673 30.582C134.065 30.7967 134.378 31.1047 134.611 31.506C134.845 31.898 134.971 32.3647 134.989 32.906C134.999 32.934 135.003 32.99 135.003 33.074C135.003 33.1487 135.003 33.214 135.003 33.27H130.677C130.677 33.8673 130.822 34.334 131.111 34.67C131.41 34.9967 131.821 35.16 132.343 35.16C132.735 35.16 133.067 35.062 133.337 34.866C133.617 34.6607 133.79 34.39 133.855 34.054H134.989C134.933 34.446 134.793 34.8007 134.569 35.118C134.345 35.4353 134.047 35.6873 133.673 35.874C133.3 36.0513 132.861 36.14 132.357 36.14ZM130.719 32.696H133.827C133.818 32.5933 133.79 32.458 133.743 32.29C133.706 32.122 133.631 31.9587 133.519 31.8C133.407 31.632 133.253 31.492 133.057 31.38C132.861 31.268 132.609 31.212 132.301 31.212C132.021 31.212 131.783 31.2587 131.587 31.352C131.391 31.4453 131.233 31.5713 131.111 31.73C130.99 31.8793 130.897 32.0427 130.831 32.22C130.775 32.388 130.738 32.5467 130.719 32.696ZM140.979 36H139.817V28.118H140.979V36ZM140.811 28.118H142.897C143.775 28.118 144.447 28.3327 144.913 28.762C145.389 29.1913 145.627 29.8353 145.627 30.694C145.627 31.4687 145.385 32.0707 144.899 32.5C144.414 32.9293 143.747 33.144 142.897 33.144H140.811V32.262H142.757C143.317 32.262 143.756 32.1313 144.073 31.87C144.4 31.6087 144.563 31.212 144.563 30.68C144.563 30.1293 144.405 29.728 144.087 29.476C143.77 29.2147 143.327 29.084 142.757 29.084H140.811V28.118ZM146.695 36V28.118H147.843V36H146.695ZM151.158 36.126C150.636 36.126 150.206 36 149.87 35.748C149.544 35.496 149.301 35.1507 149.142 34.712C148.993 34.2733 148.918 33.7693 148.918 33.2C148.918 32.612 148.998 32.0987 149.156 31.66C149.315 31.212 149.558 30.862 149.884 30.61C150.22 30.358 150.645 30.232 151.158 30.232C151.476 30.232 151.746 30.2787 151.97 30.372C152.194 30.456 152.381 30.5633 152.53 30.694C152.68 30.8247 152.801 30.96 152.894 31.1C152.988 31.2307 153.053 31.3473 153.09 31.45H153.118V30.274H154.308V36H153.314L153.118 34.978H153.09C153.053 35.0807 152.988 35.1973 152.894 35.328C152.801 35.4587 152.675 35.5847 152.516 35.706C152.367 35.8273 152.18 35.9253 151.956 36C151.732 36.084 151.466 36.126 151.158 36.126ZM151.62 35.132C151.994 35.132 152.288 35.0527 152.502 34.894C152.717 34.726 152.871 34.4973 152.964 34.208C153.058 33.9187 153.104 33.5873 153.104 33.214C153.104 32.8127 153.053 32.4673 152.95 32.178C152.857 31.8887 152.703 31.6693 152.488 31.52C152.274 31.3613 151.984 31.282 151.62 31.282C151.238 31.282 150.93 31.3707 150.696 31.548C150.472 31.716 150.309 31.9447 150.206 32.234C150.113 32.5233 150.066 32.8453 150.066 33.2C150.066 33.564 150.113 33.8953 150.206 34.194C150.309 34.4833 150.472 34.712 150.696 34.88C150.93 35.048 151.238 35.132 151.62 35.132ZM154.876 38.604V37.694H155.702C155.833 37.694 155.95 37.6753 156.052 37.638C156.155 37.61 156.253 37.5353 156.346 37.414C156.449 37.2927 156.556 37.106 156.668 36.854L157.158 35.776L154.918 30.274H156.122L157.732 34.572L159.454 30.274H160.672L157.732 36.98C157.574 37.3347 157.429 37.6193 157.298 37.834C157.177 38.0487 157.046 38.212 156.906 38.324C156.776 38.436 156.622 38.5107 156.444 38.548C156.276 38.5853 156.076 38.604 155.842 38.604H154.876Z" fill="white"/>
</svg>
