<svg width="19" height="18" viewBox="0 0 19 18" fill="none" xmlns="http://www.w3.org/2000/svg">
<path d="M9.66602 0.75C8.03432 0.75 6.43927 1.23385 5.08257 2.14038C3.72586 3.0469 2.66844 4.33537 2.04401 5.84286C1.41959 7.35035 1.25621 9.00915 1.57454 10.6095C1.89287 12.2098 2.67861 13.6799 3.83239 14.8336C4.98617 15.9874 6.45618 16.7732 8.05652 17.0915C9.65687 17.4098 11.3157 17.2464 12.8232 16.622C14.3306 15.9976 15.6191 14.9402 16.5256 13.5835C17.4322 12.2268 17.916 10.6317 17.916 9C17.916 6.81196 17.0468 4.71354 15.4997 3.16637C13.9525 1.61919 11.8541 0.75 9.66602 0.75ZM13.9463 7.28025L8.69627 12.5303C8.55562 12.6709 8.36489 12.7498 8.16602 12.7498C7.96715 12.7498 7.77642 12.6709 7.63577 12.5303L5.38577 10.2803C5.24915 10.1388 5.17355 9.94935 5.17526 9.7527C5.17697 9.55605 5.25585 9.36794 5.39491 9.22889C5.53396 9.08983 5.72207 9.01095 5.91872 9.00925C6.11537 9.00754 6.30482 9.08313 6.44627 9.21975L8.16602 10.9395L12.8858 6.21975C13.0272 6.08313 13.2167 6.00754 13.4133 6.00925C13.61 6.01095 13.7981 6.08983 13.9371 6.22889C14.0762 6.36794 14.1551 6.55605 14.1568 6.7527C14.1585 6.94935 14.0829 7.1388 13.9463 7.28025Z" fill="#34C759"/>
</svg>
