<svg width="19" height="18" viewBox="0 0 19 18" fill="none" xmlns="http://www.w3.org/2000/svg">
<path d="M7.00368 11.9996C7.18368 11.9996 7.32243 11.8391 7.59993 11.5181L10.3652 8.31038C11.7849 6.66488 12.4952 5.84138 12.1802 5.17088C11.8652 4.49963 10.7694 4.49963 8.57793 4.49963H5.42943C3.23868 4.49963 2.14068 4.49963 1.82718 5.17088C1.51368 5.84213 2.22243 6.66488 3.64143 8.31038L6.40743 11.5181C6.68418 11.8391 6.82368 11.9996 7.00368 11.9996ZM7.00368 11.9996V16.4996M6.62868 4.49963L6.32793 2.69513C6.30549 2.56072 6.24686 2.43496 6.15832 2.33136C6.06979 2.22776 5.9547 2.15024 5.82543 2.10713L4.00368 1.49963M5.87868 16.4996H8.12868" stroke="#FCAD3A" stroke-linecap="round" stroke-linejoin="round"/>
<path d="M12.145 6.62421C12.3929 6.90004 12.6962 7.12055 13.035 7.27135C13.3738 7.42216 13.7406 7.49988 14.1115 7.49946C14.8094 7.50105 15.4794 7.22543 15.9742 6.73319C16.469 6.24095 16.748 5.57238 16.75 4.87446C16.75 3.42471 15.5688 2.24946 14.1115 2.24946C13.4784 2.24779 12.8659 2.47434 12.3863 2.88758C11.9066 3.30082 11.592 3.87308 11.5 4.49946" stroke="#FCAD3A" stroke-linecap="round" stroke-linejoin="round"/>
<path d="M5.75 6.5C4.95 5.7 3.41667 6.5 2.75 7L7.25 12C8.58333 10.5 11.25 7.39998 11.25 7C11.25 6.60003 9.91667 6.50001 9.25 6.5C8.41667 6.83334 6.55 7.3 5.75 6.5Z" fill="#FCAD3A"/>
</svg>
