<svg width="19" height="18" viewBox="0 0 19 18" fill="none" xmlns="http://www.w3.org/2000/svg">
<path d="M14.6855 7.2893L13.1548 2.09109C13.1205 1.97463 13.0494 1.87239 12.9522 1.79965C12.855 1.7269 12.7369 1.68756 12.6155 1.6875H5.88095C5.75954 1.68756 5.64142 1.7269 5.54421 1.79965C5.44701 1.87239 5.37595 1.97463 5.34166 2.09109L3.81095 7.2893C3.57079 8.08605 3.55822 8.93408 3.77467 9.73759C3.99111 10.5411 4.42793 11.2681 5.0358 11.8364C6.03577 12.774 7.3205 13.3504 8.68572 13.474V16.3125H6.43572C6.28653 16.3125 6.14346 16.3718 6.03797 16.4773C5.93248 16.5827 5.87322 16.7258 5.87322 16.875C5.87322 17.0242 5.93248 17.1673 6.03797 17.2727C6.14346 17.3782 6.28653 17.4375 6.43572 17.4375H12.0607C12.2099 17.4375 12.353 17.3782 12.4585 17.2727C12.564 17.1673 12.6232 17.0242 12.6232 16.875C12.6232 16.7258 12.564 16.5827 12.4585 16.4773C12.353 16.3718 12.2099 16.3125 12.0607 16.3125H9.81072V13.474C11.176 13.3505 12.4607 12.7741 13.4606 11.8364C14.0684 11.268 14.5051 10.541 14.7215 9.73753C14.938 8.93405 14.9255 8.08606 14.6855 7.2893ZM6.30142 2.8125H12.195L13.6076 7.60711C13.6139 7.6282 13.6195 7.6493 13.6252 7.67039C12.1191 8.21039 10.4231 7.55789 9.50275 7.09172C7.73158 6.19523 6.32533 6.08133 5.28822 6.25289L6.30142 2.8125Z" fill="#EF544F"/>
</svg>
