<svg width="241" height="54" viewBox="0 0 241 54" fill="none" xmlns="http://www.w3.org/2000/svg">
<path d="M99.2801 0H110.893V13.3867H116.48V24.0534H110.893V52.4134H99.2801V24.0534H94.8268V13.3867H99.2801V0Z" fill="white"/>
<path d="M147.507 18.88L139.613 23.6932C137.333 21.3999 135.213 20.2401 133.227 20.2401C132.253 20.2401 131.413 20.5066 130.72 21.0532C130.027 21.5999 129.667 22.2662 129.667 23.0396C129.667 24.3062 130.067 25.2266 130.88 25.8C131.693 26.3733 133.84 27.2663 137.32 28.453C140.813 29.653 143.56 31.1862 145.573 33.0662C147.587 34.9462 148.587 37.5464 148.587 40.8664C148.587 44.1864 147.08 47.1063 144.053 49.5063C141.027 51.9063 137.4 53.1196 133.16 53.1196C130.28 53.1196 127.413 52.3199 124.56 50.7199C121.707 49.1199 119.28 46.6662 117.28 43.3729L126.667 39.1066C128.787 42.7733 130.973 44.6001 133.24 44.6001C134.267 44.6001 135.187 44.2668 136.013 43.6001C136.827 42.9334 137.24 42.1865 137.24 41.3332C137.24 40.2532 136.773 39.4264 135.827 38.8664C134.893 38.3064 134.187 38.0265 133.733 38.0265C133.547 37.8132 132.467 37.3866 130.467 36.7466C122.667 34.1999 118.76 30.0662 118.76 24.3462C118.76 20.8929 120.16 18.08 122.96 15.88C125.76 13.6934 129.413 12.5864 133.92 12.5864C138.907 12.5864 143.44 14.68 147.493 18.8534L147.507 18.88Z" fill="white"/>
<path d="M179.707 52.4134V45.7467H179.52C177.707 48.3467 175.88 50.2264 174.027 51.3997C172.187 52.5597 169.893 53.1465 167.173 53.1465C162.6 53.1465 158.72 51.1866 155.507 47.2533C152.293 43.3199 150.693 38.5466 150.693 32.9199C150.693 27.2933 152.4 22.5869 155.827 18.6003C159.24 14.6269 163.293 12.627 167.987 12.627C170.227 12.627 172.24 13.1198 174.027 14.1198C175.813 15.1198 177.707 16.7069 179.693 18.8802V13.4798H191.307V52.4134H179.693H179.707ZM171.173 24.2402C168.88 24.2402 166.947 25.1603 165.413 26.987C163.867 28.8136 163.093 31.1202 163.093 33.9069C163.093 36.5069 163.827 38.6002 165.293 40.1868C166.76 41.7735 168.693 42.5736 171.08 42.5736C173.467 42.5736 175.347 41.6535 176.973 39.8268C178.613 38.0002 179.427 35.7865 179.427 33.1732C179.427 30.7598 178.613 28.6532 176.973 26.8932C175.333 25.1199 173.4 24.2402 171.16 24.2402H171.173Z" fill="white"/>
<path d="M194.293 13.3867H206.56L217.28 36.2533L227.973 13.3867H240.12L221.947 52.4134H212.467L194.28 13.3867H194.293Z" fill="white"/>
<path d="M26.5867 53.3335C11.9334 53.3335 0.0133438 41.4133 0.0133438 26.7599C0.0133438 12.1066 11.9334 0.187012 26.5867 0.187012C41.2401 0.187012 53.1602 12.1066 53.1602 26.7599C53.1602 41.4133 41.2401 53.3335 26.5867 53.3335ZM26.5867 15.6668C20.4667 15.6668 15.4801 20.6536 15.4801 26.7736C15.4801 32.8936 20.4667 37.8804 26.5867 37.8804C32.7067 37.8804 37.6934 32.8936 37.6934 26.7736C37.6934 20.6536 32.7067 15.6668 26.5867 15.6668Z" fill="white"/>
<path d="M64.2534 53.3335C49.6001 53.3335 37.68 41.4133 37.68 26.7599C37.68 12.1066 49.6001 0.187012 64.2534 0.187012C78.9067 0.187012 90.8268 12.1066 90.8268 26.7599C90.8268 41.4133 78.9067 53.3335 64.2534 53.3335ZM64.2534 15.6668C58.1334 15.6668 53.1468 20.6536 53.1468 26.7736C53.1468 32.8936 58.1334 37.8804 64.2534 37.8804C70.3734 37.8804 75.36 32.8936 75.36 26.7736C75.36 20.6536 70.3734 15.6668 64.2534 15.6668Z" fill="white"/>
<path d="M90.8268 26.7733C90.8268 41.4266 78.9067 53.3462 64.2534 53.3462C49.6001 53.3462 37.68 41.4266 37.68 26.7733C37.68 20.6533 32.6934 15.6665 26.5734 15.6665C20.4534 15.6665 15.4668 20.6533 15.4668 26.7733H0C0 12.1199 11.9201 0.199707 26.5734 0.199707C41.2267 0.199707 53.1468 12.1199 53.1468 26.7733C53.1468 32.8933 58.1334 37.88 64.2534 37.88C70.3734 37.88 75.36 32.8933 75.36 26.7733H90.8268Z" fill="white"/>
</svg>
